{
copyright = "Copyright (c) 2024 by Vladimir Nikolic. All rights reserved.";
designer = "Vladimir Nikolic";
designerURL = "https://www.coroflot.com/vladimirnikolic";
familyName = Angelica;
customParameters = (
{
name = glyphOrder;
value = (
.notdef,
numbersign,
dollar,
percent,
ampersand,
quotesingle,
parenleft,
parenright,
asterisk,
plus,
comma,
hyphen,
period,
slash,
zero,
one,
two,
three,
four,
five,
six,
seven,
nine,
colon,
semicolon,
less,
equal,
greater,
question,
at,
C,
D,
E,
F,
G,
H,
I,
J,
K,
L,
M,
P,
R,
S,
T,
U,
X,
Z,
bracketleft,
bracketright,
underscore,
Euro,
NULL,
CR,
space,
Q,
Y,
V,
W,
b,
c,
d,
f,
g,
h,
i,
j,
l,
o,
p,
q,
r,
t,
u,
v,
w,
x,
y,
z,
e,
N,
s,
B,
eight,
m,
n,
k,
exclam,
A,
a,
dieresis,
adieresis,
breve,
abreve,
caron,
hungarumlaut,
grave,
ncaron,
dotaccent,
zdotaccent,
Zdotaccent,
periodcentered,
exclamdown,
bar,
odieresis,
Odieresis,
acute,
agrave,
aacute,
Agrave,
Aacute,
cent,
yen,
circumflex,
acircumflex,
Acircumflex,
Adieresis,
ecircumflex,
eacute,
egrave,
Egrave,
Eacute,
Ecircumflex,
edieresis,
Edieresis,
igrave,
Igrave,
iacute,
Iacute,
icircumflex,
Icircumflex,
idieresis,
Idieresis,
ograve,
oacute,
ocircumflex,
Ograve,
Oacute,
Ocircumflex,
AE,
ae,
cedilla,
gbreve,
gcircumflex,
ecaron,
scedilla,
Scedilla,
ohungarumlaut,
obreve,
wdieresis,
wacute,
wgrave,
Wgrave,
Wacute,
Wdieresis,
zacute,
Zacute,
Ecaron,
Gcircumflex,
Gbreve,
ydieresis,
rcaron,
Rcaron,
sacute,
Sacute,
scircumflex,
Scircumflex,
scaron,
Scaron,
ij,
IJ,
minus,
divide,
oslash,
backslash,
uacute,
ugrave,
ucircumflex,
udieresis,
yacute,
Oslash,
Ugrave,
Uacute,
Ucircumflex,
Udieresis,
Yacute,
ogonek,
ccedilla,
Ccedilla,
aogonek,
Aogonek,
cacute,
Cacute,
ccircumflex,
Ccircumflex,
cdotaccent,
Cdotaccent,
ccaron,
Ccaron,
dcroat,
Dcroat,
uogonek,
Uogonek,
wcircumflex,
ycircumflex,
Ycircumflex,
Ydieresis,
zcaron,
Zcaron,
uhungarumlaut,
Uhungarumlaut,
ubreve,
Ubreve,
ldot,
Ldot,
macron,
emacron,
Emacron,
ebreve,
Ebreve,
edotaccent,
Edotaccent,
eogonek,
Eogonek,
Wcircumflex,
umacron,

glyphs = (
{
glyphname = numbersign;
layers = (
{
layerId = "79BD7992-1179-43F8-A0C5-7244DBF16C0A";
paths = (
{
nodes = (
"484 329 LINE",
"397 329 LINE",
"382 259 LINE",
"463 259 LINE",
"463 155 LINE",
"362 155 LINE",
"332 0 LINE",
"232 0 LINE",
"262 155 LINE",
"194 155 LINE",
"164 0 LINE",
"64 0 LINE",
"94 155 LINE",
"31 155 LINE",
"31 259 LINE",
"114 259 LINE",
"129 329 LINE",
"29 329 LINE",
"29 433 LINE",
"149 433 LINE",
"180 595 LINE",
"280 595 LINE",
"249 433 LINE",
"317 433 LINE",
"348 595 LINE",
"448 595 LINE",
"417 433 LINE",
"484 433 LINE"
);
},
{
nodes = (
"282 259 LINE",
"297 329 LINE",
"229 329 LINE",
"214 259 LINE"
);
}
);
width = 508;
}
);
unicode = 0023;
},
{
glyphname = dollar;
layers = (
{
layerId = "79BD7992-1179-43F8-A0C5-7244DBF16C0A";
paths = (
{
nodes = (
"700 390 OFFCURVE",
"747 327 OFFCURVE",
"765 263 OFFCURVE",
"765 240 QCURVE SMOOTH",
"765 205 LINE SMOOTH",
"765 141 OFFCURVE",
"696 40 OFFCURVE",
"639 16 QCURVE SMOOTH",
"623 9 OFFCURVE",
"590 1 OFFCURVE",
"573 0 QCURVE",
"553 0 LINE",
"553 -86 LINE",
"434 -86 LINE",
"434 0 LINE",
"361 0 LINE",
"361 -86 LINE",
"251 -86 LINE",
"251 0 LINE",
"218 0 LINE SMOOTH",
"179 0 OFFCURVE",
"112 36 OFFCURVE",
"62 95 OFFCURVE",
"33 168 OFFCURVE",
"32 204 QCURVE",
"155 204 LINE",
"155 200 LINE SMOOTH",
"155 181 OFFCURVE",
"180 142 OFFCURVE",
"201 130 QCURVE",
"206 128 OFFCURVE",
"217 124 OFFCURVE",
"222 123 QCURVE",
"249 123 LINE",
"249 291 LINE",
"190 292 LINE",
"163 292 OFFCURVE",
"133 305 QCURVE",
"104 319 OFFCURVE",
"54 371 OFFCURVE",
"32 433 OFFCURVE",
"32 456 QCURVE SMOOTH",
"32 491 LINE SMOOTH",
"32 555 OFFCURVE",
"101 656 OFFCURVE",
"158 680 QCURVE SMOOTH",
"174 687 OFFCURVE",
"207 695 OFFCURVE",
"224 696 QCURVE",
"254 700 LINE",
"254 782 LINE",
"363 782 LINE",
"363 696 LINE",
"436 696 LINE",
"436 782 LINE",
"550 782 LINE",
"549 696 LINE",
"579 696 LINE SMOOTH",
"618 696 OFFCURVE",
"685 660 OFFCURVE",
"735 601 OFFCURVE",
"764 528 OFFCURVE",
"765 492 QCURVE",
"642 492 LINE",
"642 496 LINE SMOOTH",
"642 515 OFFCURVE",
"617 554 OFFCURVE",
"596 566 QCURVE",
"591 568 OFFCURVE",
"580 572 OFFCURVE",
"575 573 QCURVE",
"548 573 LINE",
"548 417 LINE",
"607 416 LINE",
"634 416 OFFCURVE",
"664 403 QCURVE"
);
},
{
nodes = (
"553 291 LINE",
"553 123 LINE",
"581 123 LINE",
"581 125 LINE",
"588 127 OFFCURVE",
"594 130 QCURVE",
"613 134 OFFCURVE",
"642 171 OFFCURVE",
"645 191 QCURVE",
"646 212 LINE",
"643 243 OFFCURVE",
"635 257 OFFCURVE",
"609 286 OFFCURVE",
"589 291 QCURVE"
);
},
{
nodes = (
"249 415 LINE",
"249 573 LINE",
"216 573 LINE",
"216 571 LINE",
"209 569 OFFCURVE",
"203 566 QCURVE",
"184 562 OFFCURVE",
"155 525 OFFCURVE",
"152 505 QCURVE",
"151 484 LINE",
"154 453 OFFCURVE",
"162 439 OFFCURVE",
"188 420 OFFCURVE",
"208 415 QCURVE"
);
},
{
nodes = (
"434 291 LINE",
"361 291 LINE",
"361 123 LINE",
"434 123 LINE"
);
},
{
nodes = (
"363 415 LINE",
"436 415 LINE",
"436 573 LINE",
"363 573 LINE"
);
}
);
width = 788;
}
);
unicode = 0024;
},
{
glyphname = percent;
layers = (
{
layerId = "79BD7992-1179-43F8-A0C5-7244DBF16C0A";
paths = (
{
nodes = (
"542 696 LINE",
"354 0 LINE",
"282 0 LINE",
"463 696 LINE"
);
},
{
nodes = (
"351 412 LINE SMOOTH",
"351 391 OFFCURVE",
"332 355 OFFCURVE",
"302 328 OFFCURVE",
"264 312 OFFCURVE",
"245 312 QCURVE SMOOTH",
"121 312 LINE SMOOTH",
"100 312 OFFCURVE",
"64 331 OFFCURVE",
"37 362 OFFCURVE",
"22 402 OFFCURVE",
"22 422 QCURVE SMOOTH",
"22 595 LINE SMOOTH",
"22 613 OFFCURVE",
"39 649 OFFCURVE",
"68 678 OFFCURVE",
"103 696 OFFCURVE",
"121 696 QCURVE SMOOTH",
"253 696 LINE SMOOTH",
"274 696 OFFCURVE",
"309 676 OFFCURVE",
"336 645 OFFCURVE",
"351 605 OFFCURVE",
"351 585 QCURVE SMOOTH"
);
},
{
nodes = (
"271 585 LINE SMOOTH",
"271 596 OFFCURVE",
"258 613 OFFCURVE",
"248 613 QCURVE SMOOTH",
"232 613 LINE",
"232 393 LINE",
"248 393 LINE SMOOTH",
"256 393 OFFCURVE",
"271 409 OFFCURVE",
"271 418 QCURVE SMOOTH"
);
},
{
nodes = (
"804 100 LINE SMOOTH",
"804 79 OFFCURVE",
"785 43 OFFCURVE",
"755 16 OFFCURVE",
"717 0 OFFCURVE",
"698 0 QCURVE SMOOTH",
"574 0 LINE SMOOTH",
"553 0 OFFCURVE",
"517 19 OFFCURVE",
"490 50 OFFCURVE",
"475 90 OFFCURVE",
"475 110 QCURVE SMOOTH",
"475 283 LINE SMOOTH",
"475 301 OFFCURVE",
"492 337 OFFCURVE",
"521 366 OFFCURVE",
"556 384 OFFCURVE",
"574 384 QCURVE SMOOTH",
"706 384 LINE SMOOTH",
"727 384 OFFCURVE",
"762 364 OFFCURVE",
"789 333 OFFCURVE",
"804 293 OFFCURVE",
"804 273 QCURVE SMOOTH"
);
},
{
nodes = (
"724 273 LINE SMOOTH",
"724 284 OFFCURVE",
"711 301 OFFCURVE",
"701 301 QCURVE SMOOTH",
"685 301 LINE",
"685 81 LINE",
"701 81 LINE SMOOTH",
"709 81 OFFCURVE",
"724 97 OFFCURVE",
"724 106 QCURVE SMOOTH"
);
}
);
width = 826;
}
);
unicode = 0025;
},
{
glyphname = ampersand;
layers = (
{
layerId = "79BD7992-1179-43F8-A0C5-7244DBF16C0A";
paths = (
{
nodes = (
"618 85 OFFCURVE",
"569 29 OFFCURVE",
"501 0 OFFCURVE",
"458 0 QCURVE",
"439 -1 OFFCURVE",
"346 0 QCURVE",
"215 0 LINE SMOOTH",
"175 0 OFFCURVE",
"105 30 OFFCURVE",
"52 83 OFFCURVE",
"22 153 OFFCURVE",
"22 193 QCURVE SMOOTH",
"22 210 OFFCURVE",
"21 226 OFFCURVE",
"21 227 QCURVE",
"21 239 OFFCURVE",
"26 256 QCURVE",
"30 274 OFFCURVE",
"52 307 OFFCURVE",
"82 333 OFFCURVE",
"99 340 QCURVE SMOOTH",
"113 346 OFFCURVE",
"127 348 QCURVE",
"110 350 OFFCURVE",
"93 358 QCURVE SMOOTH",
"73 367 OFFCURVE",
"41 397 OFFCURVE",
"22 439 OFFCURVE",
"22 465 QCURVE SMOOTH",
"22 511 LINE SMOOTH",
"22 535 OFFCURVE",
"29 556 QCURVE SMOOTH",
"38 587 OFFCURVE",
"74 639 OFFCURVE",
"123 676 OFFCURVE",
"182 696 OFFCURVE",
"215 696 QCURVE SMOOTH",
"441 696 OFFCURVE",
"460 695 QCURVE",
"503 695 OFFCURVE",
"571 666 OFFCURVE",
"620 610 OFFCURVE",
"648 537 OFFCURVE",
"650 497 QCURVE",
"527 497 LINE",
"527 499 LINE",
"527 512 OFFCURVE",
"513 539 OFFCURVE",
"492 560 OFFCURVE",
"465 573 OFFCURVE",
"452 573 QCURVE SMOOTH",
"379 573 LINE",
"379 410 LINE",
"526 410 LINE",
"526 414 LINE",
"525 425 OFFCURVE",
"525 432 QCURVE SMOOTH",
"525 439 LINE",
"649 439 LINE",
"649 410 LINE",
"689 410 LINE",
"689 286 LINE",
"650 286 LINE",
"650 186 LINE",
"646 152 OFFCURVE",
"632 122 QCURVE"
);
},
{
nodes = (
"379 123 LINE",
"408 122 LINE",
"450 122 LINE SMOOTH",
"463 122 OFFCURVE",
"490 135 OFFCURVE",
"511 156 OFFCURVE",
"525 183 OFFCURVE",
"526 196 QCURVE",
"526 198 LINE",
"526 282 OFFCURVE",
"526 286 QCURVE",
"379 286 LINE"
);
}
);
width = 709;
}
);
unicode = 0026;
},
{
glyphname = quotesingle;
layers = (
{
layerId = "79BD7992-1179-43F8-A0C5-7244DBF16C0A";
paths = (
{
nodes = (
"242 694 LINE",
"176 415 LINE",
"51 415 LINE",
"17 694 LINE"
);
}
);
width = 262;
}
);
unicode = 0027;
},
{
glyphname = parenleft;
layers = (
{
layerId = "79BD7992-1179-43F8-A0C5-7244DBF16C0A";
paths = (
{
nodes = (
"451 855 LINE",
"451 732 LINE",
"362 732 LINE",
"362 -43 LINE",
"451 -43 LINE",
"451 -166 LINE",
"222 -166 LINE SMOOTH",
"180 -166 OFFCURVE",
"106 -134 OFFCURVE",
"50 -78 OFFCURVE",
"18 -4 OFFCURVE",
"18 38 QCURVE SMOOTH",
"18 651 LINE SMOOTH",
"18 693 OFFCURVE",
"50 767 OFFCURVE",
"106 823 OFFCURVE",
"180 855 OFFCURVE",
"222 855 QCURVE SMOOTH"
);
}
);
width = 466;
}
);
unicode = 0028;
},
{
glyphname = parenright;
layers = (
{
layerId = "79BD7992-1179-43F8-A0C5-7244DBF16C0A";
paths = (
{
nodes = (
"248 855 LINE SMOOTH",
"290 855 OFFCURVE",
"364 823 OFFCURVE",
"420 767 OFFCURVE",
"452 693 OFFCURVE",
"452 651 QCURVE SMOOTH",
"452 38 LINE SMOOTH",
"452 -4 OFFCURVE",
"420 -78 OFFCURVE",
"364 -134 OFFCURVE",
"290 -166 OFFCURVE",
"248 -166 QCURVE SMOOTH",
"19 -166 LINE",
"19 -43 LINE",
"108 -43 LINE",
"108 732 LINE",
"19 732 LINE",
"19 855 LINE"
);
}
);
width = 478;
}
);
unicode = 0029;
},
{
glyphname = asterisk;
layers = (
{
layerId = "79BD7992-1179-43F8-A0C5-7244DBF16C0A";
paths = (
{
nodes = (
"371 456 LINE",
"310 355 LINE",
"239 421 LINE",
"249 324 LINE",
"132 324 LINE",
"142 405 LINE",
"86 349 LINE",
"20 451 LINE",
"91 487 LINE",
"15 523 LINE",
"81 619 LINE",
"142 563 LINE",
"127 660 LINE",
"244 660 LINE",
"234 558 LINE",
"305 619 LINE",
"366 523 LINE",
"300 492 LINE"
);
}
);
width = 394;
}
);
unicode = 002A;
},
{
glyphname = plus;
layers = (
{
layerId = "79BD7992-1179-43F8-A0C5-7244DBF16C0A";
paths = (
{
nodes = (
"278 105 LINE",
"184 105 LINE",
"184 283 LINE",
"17 283 LINE",
"17 376 LINE",
"184 376 LINE",
"184 549 LINE",
"278 549 LINE",
"278 376 LINE",
"450 376 LINE",
"450 283 LINE",
"278 283 LINE"
);
}
);
width = 468;
}
);
unicode = 002B;
},
{
glyphname = comma;
layers = (
{
layerId = "79BD7992-1179-43F8-A0C5-7244DBF16C0A";
paths = (
{
nodes = (
"37 112 LINE",
"165 112 LINE",
"165 0 LINE",
"37 -75 LINE"
);
}
);
width = 181;
}
);
unicode = 002C;
},
{
glyphname = hyphen;
layers = (
{
layerId = "79BD7992-1179-43F8-A0C5-7244DBF16C0A";
paths = (
{
nodes = (
"514 389 LINE",
"514 292 LINE",
"18 292 LINE",
"18 389 LINE"
);
}
);
width = 534;
}
);
unicode = 002D;
},
{
glyphname = period;
layers = (
{
layerId = "79BD7992-1179-43F8-A0C5-7244DBF16C0A";
paths = (
{
nodes = (
"191 169 LINE",
"191 0 LINE",
"26 0 LINE",
"26 169 LINE"
);
}
);
width = 215;
}
);
unicode = 002E;
},
{
glyphname = slash;
layers = (
{
layerId = "79BD7992-1179-43F8-A0C5-7244DBF16C0A";
paths = (
{
nodes = (
"322 763 LINE",
"126 -71 LINE",
"42 -71 LINE",
"237 763 LINE"
);
}
);
width = 345;
}
);
unicode = 002F;
},
{
glyphname = zero;
layers = (
{
layerId = "79BD7992-1179-43F8-A0C5-7244DBF16C0A";
paths = (
{
nodes = (
"666 186 LINE SMOOTH",
"666 148 OFFCURVE",
"630 80 OFFCURVE",
"571 29 OFFCURVE",
"498 0 OFFCURVE",
"462 0 QCURVE",
"210 1 LINE",
"171 1 OFFCURVE",
"103 37 OFFCURVE",
"52 95 OFFCURVE",
"23 168 OFFCURVE",
"23 205 QCURVE SMOOTH",
"23 510 LINE SMOOTH",
"23 543 OFFCURVE",
"57 609 OFFCURVE",
"110 663 OFFCURVE",
"177 696 OFFCURVE",
"210 696 QCURVE SMOOTH",
"480 696 LINE SMOOTH",
"518 696 OFFCURVE",
"586 659 OFFCURVE",
"637 601 OFFCURVE",
"666 528 OFFCURVE",
"666 492 QCURVE SMOOTH"
);
},
{
nodes = (
"543 492 LINE SMOOTH",
"543 507 OFFCURVE",
"531 536 OFFCURVE",
"511 559 OFFCURVE",
"484 573 OFFCURVE",
"469 573 QCURVE SMOOTH",
"392 573 LINE",
"392 123 LINE",
"469 123 LINE SMOOTH",
"482 123 OFFCURVE",
"509 136 OFFCURVE",
"530 157 OFFCURVE",
"543 183 OFFCURVE",
"543 197 QCURVE SMOOTH"
);
}
);
width = 711;
}
);
unicode = 0030;
},
{
glyphname = one;
layers = (
{
layerId = "79BD7992-1179-43F8-A0C5-7244DBF16C0A";
paths = (
{
nodes = (
"201 696 LINE",
"529 696 LINE",
"529 0 LINE",
"201 0 LINE",
"201 524 LINE",
"162 479 LINE",
"16 479 LINE"
);
}
);
width = 556;
}
);
unicode = 0031;
},
{
glyphname = two;
layers = (
{
layerId = "79BD7992-1179-43F8-A0C5-7244DBF16C0A";
paths = (
{
nodes = (
"237 123 LINE",
"652 123 LINE",
"652 0 LINE",
"20 0 LINE",
"20 246 LINE SMOOTH",
"20 268 OFFCURVE",
"38 311 OFFCURVE",
"68 346 OFFCURVE",
"109 368 OFFCURVE",
"132 368 QCURVE SMOOTH",
"283 368 LINE",
"283 573 LINE",
"218 573 LINE SMOOTH",
"192 573 OFFCURVE",
"162 549 OFFCURVE",
"147 513 OFFCURVE",
"143 470 OFFCURVE",
"143 451 QCURVE",
"20 451 LINE",
"20 492 LINE SMOOTH",
"20 528 OFFCURVE",
"49 601 OFFCURVE",
"100 660 OFFCURVE",
"168 696 OFFCURVE",
"207 696 QCURVE SMOOTH",
"449 696 LINE SMOOTH",
"491 696 OFFCURVE",
"563 658 OFFCURVE",
"616 594 OFFCURVE",
"647 515 OFFCURVE",
"647 476 QCURVE SMOOTH",
"647 427 OFFCURVE",
"615 339 OFFCURVE",
"558 280 OFFCURVE",
"478 250 OFFCURVE",
"429 249 QCURVE SMOOTH",
"237 246 LINE"
);
}
);
width = 689;
}
);
unicode = 0032;
},
{
glyphname = three;
layers = (
{
layerId = "79BD7992-1179-43F8-A0C5-7244DBF16C0A";
paths = (
{
nodes = (
"88 41 OFFCURVE",
"38 109 OFFCURVE",
"15 195 OFFCURVE",
"15 239 QCURVE SMOOTH",
"15 246 LINE",
"138 246 LINE",
"138 228 OFFCURVE",
"142 185 OFFCURVE",
"158 148 OFFCURVE",
"187 123 OFFCURVE",
"213 123 QCURVE SMOOTH",
"284 123 LINE",
"284 287 LINE",
"202 287 LINE",
"202 411 LINE",
"284 411 LINE",
"284 574 LINE",
"220 574 LINE SMOOTH",
"192 574 OFFCURVE",
"159 552 OFFCURVE",
"143 517 OFFCURVE",
"138 473 OFFCURVE",
"138 451 QCURVE",
"15 451 LINE",
"15 492 LINE SMOOTH",
"15 534 OFFCURVE",
"48 609 OFFCURVE",
"103 664 OFFCURVE",
"178 697 OFFCURVE",
"220 697 QCURVE SMOOTH",
"463 697 LINE SMOOTH",
"502 697 OFFCURVE",
"570 664 OFFCURVE",
"619 610 OFFCURVE",
"648 544 OFFCURVE",
"648 511 QCURVE SMOOTH",
"648 469 OFFCURVE",
"618 401 OFFCURVE",
"592 376 QCURVE SMOOTH",
"575 360 OFFCURVE",
"553 348 QCURVE",
"576 334 OFFCURVE",
"595 314 QCURVE SMOOTH",
"619 287 OFFCURVE",
"648 221 OFFCURVE",
"648 188 QCURVE SMOOTH",
"648 146 OFFCURVE",
"618 78 OFFCURVE",
"565 28 OFFCURVE",
"490 1 OFFCURVE",
"445 0 QCURVE",
"220 0 LINE SMOOTH",
"166 0 OFFCURVE",
"127 20 QCURVE SMOOTH"
);
}
);
width = 670;
}
);
unicode = 0033;
},
{
glyphname = four;
layers = (
{
layerId = "79BD7992-1179-43F8-A0C5-7244DBF16C0A";
paths = (
{
nodes = (
"205 430 LINE",
"308 430 LINE",
"308 527 LINE"
);
},
{
nodes = (
"636 430 LINE",
"688 430 LINE",
"688 306 LINE",
"636 306 LINE",
"636 0 LINE",
"308 0 LINE",
"308 306 LINE",
"31 306 LINE",
"31 429 LINE",
"308 696 LINE",
"636 696 LINE"
);
}
);
width = 717;
}
);
unicode = 0034;
},
{
glyphname = five;
layers = (
{
layerId = "79BD7992-1179-43F8-A0C5-7244DBF16C0A";
paths = (
{
nodes = (
"207 0 LINE SMOOTH",
"168 0 OFFCURVE",
"100 36 OFFCURVE",
"49 95 OFFCURVE",
"20 168 OFFCURVE",
"20 204 QCURVE SMOOTH",
"20 245 LINE",
"143 245 LINE",
"143 226 OFFCURVE",
"147 183 OFFCURVE",
"162 147 OFFCURVE",
"192 123 OFFCURVE",
"218 123 QCURVE SMOOTH",
"283 123 LINE",
"283 328 LINE",
"20 328 LINE",
"20 696 LINE",
"652 696 LINE",
"652 573 LINE",
"242 573 LINE",
"242 450 LINE",
"413 450 LINE",
"413 449 LINE",
"450 449 LINE SMOOTH",
"492 449 OFFCURVE",
"564 411 OFFCURVE",
"617 347 OFFCURVE",
"648 268 OFFCURVE",
"648 229 QCURVE SMOOTH",
"648 180 OFFCURVE",
"616 92 OFFCURVE",
"559 33 OFFCURVE",
"479 1 OFFCURVE",
"430 0 QCURVE"
);
}
);
width = 689;
}
);
unicode = 0035;
},
{
glyphname = six;
layers = (
{
layerId = "79BD7992-1179-43F8-A0C5-7244DBF16C0A";
paths = (
{
nodes = (
"678 288 OFFCURVE",
"678 246 QCURVE SMOOTH",
"678 205 LINE SMOOTH",
"678 163 OFFCURVE",
"645 88 OFFCURVE",
"590 33 OFFCURVE",
"515 0 OFFCURVE",
"473 0 QCURVE",
"204 1 LINE",
"165 1 OFFCURVE",
"97 37 OFFCURVE",
"46 96 OFFCURVE",
"17 169 OFFCURVE",
"17 205 QCURVE SMOOTH",
"17 510 LINE SMOOTH",
"17 543 OFFCURVE",
"50 610 OFFCURVE",
"104 663 OFFCURVE",
"170 696 OFFCURVE",
"203 696 QCURVE SMOOTH",
"473 696 LINE SMOOTH",
"516 696 OFFCURVE",
"591 664 OFFCURVE",
"645 609 OFFCURVE",
"677 534 OFFCURVE",
"678 492 QCURVE",
"555 492 LINE",
"555 500 LINE SMOOTH",
"555 533 OFFCURVE",
"510 568 OFFCURVE",
"475 573 QCURVE SMOOTH",
"452 576 OFFCURVE",
"423 577 OFFCURVE",
"417 577 QCURVE SMOOTH",
"386 577 LINE",
"386 451 LINE",
"480 451 LINE",
"518 449 OFFCURVE",
"552 434 QCURVE SMOOTH",
"590 418 OFFCURVE",
"645 363 OFFCURVE",
"661 326 QCURVE SMOOTH"
);
},
{
nodes = (
"386 328 LINE",
"386 123 LINE",
"480 123 LINE SMOOTH",
"493 123 OFFCURVE",
"520 137 OFFCURVE",
"542 158 OFFCURVE",
"555 185 OFFCURVE",
"555 198 QCURVE SMOOTH",
"555 253 LINE SMOOTH",
"555 266 OFFCURVE",
"542 293 OFFCURVE",
"520 314 OFFCURVE",
"493 328 OFFCURVE",
"480 328 QCURVE SMOOTH"
);
}
);
width = 704;
}
);
unicode = 0036;
},
{
glyphname = seven;
layers = (
{
layerId = "79BD7992-1179-43F8-A0C5-7244DBF16C0A";
paths = (
{
nodes = (
"762 696 LINE",
"434 0 LINE",
"65 0 LINE",
"369 573 LINE",
"24 573 LINE",
"24 696 LINE"
);
}
);
width = 781;
}
);
unicode = 0037;
},
{
glyphname = nine;
layers = (
{
layerId = "79BD7992-1179-43F8-A0C5-7244DBF16C0A";
paths = (
{
nodes = (
"21 487 LINE",
"24 533 OFFCURVE",
"57 607 OFFCURVE",
"113 663 OFFCURVE",
"187 696 OFFCURVE",
"229 696 QCURVE SMOOTH",
"452 696 LINE",
"490 695 OFFCURVE",
"558 658 OFFCURVE",
"609 600 OFFCURVE",
"638 527 OFFCURVE",
"638 491 QCURVE SMOOTH",
"638 204 LINE SMOOTH",
"638 168 OFFCURVE",
"609 95 OFFCURVE",
"558 36 OFFCURVE",
"491 0 OFFCURVE",
"452 0 QCURVE",
"229 -1 LINE",
"174 -1 OFFCURVE",
"96 40 OFFCURVE",
"47 108 OFFCURVE",
"24 193 OFFCURVE",
"24 237 QCURVE SMOOTH",
"24 245 LINE",
"352 245 LINE",
"352 122 LINE",
"441 122 LINE SMOOTH",
"454 122 OFFCURVE",
"480 136 OFFCURVE",
"501 157 OFFCURVE",
"515 183 OFFCURVE",
"515 196 QCURVE SMOOTH",
"515 286 LINE",
"294 285 LINE",
"208 285 LINE SMOOTH",
"173 285 OFFCURVE",
"105 318 OFFCURVE",
"55 366 OFFCURVE",
"22 437 OFFCURVE",
"22 471 QCURVE"
);
},
{
nodes = (
"352 572 LINE",
"352 409 LINE",
"515 409 LINE",
"515 498 LINE SMOOTH",
"515 511 OFFCURVE",
"501 537 OFFCURVE",
"480 558 OFFCURVE",
"454 572 OFFCURVE",
"441 572 QCURVE SMOOTH"
);
}
);
width = 681;
}
);
unicode = 0039;
},
{
glyphname = colon;
layers = (
{
layerId = "79BD7992-1179-43F8-A0C5-7244DBF16C0A";
paths = (
{
nodes = (
"45 591 OFFCURVE",
"83 630 OFFCURVE",
"112 630 QCURVE SMOOTH",
"141 630 OFFCURVE",
"180 591 OFFCURVE",
"180 562 QCURVE SMOOTH",
"180 533 OFFCURVE",
"141 495 OFFCURVE",
"112 495 QCURVE SMOOTH",
"83 495 OFFCURVE",
"45 533 OFFCURVE",
"45 562 QCURVE SMOOTH"
);
},
{
nodes = (
"45 166 OFFCURVE",
"83 205 OFFCURVE",
"112 205 QCURVE SMOOTH",
"141 205 OFFCURVE",
"180 166 OFFCURVE",
"180 137 QCURVE SMOOTH",
"180 108 OFFCURVE",
"141 70 OFFCURVE",
"112 70 QCURVE SMOOTH",
"83 70 OFFCURVE",
"45 108 OFFCURVE",
"45 137 QCURVE SMOOTH"
);
}
);
width = 212;
}
);
unicode = 003A;
},
{
glyphname = semicolon;
layers = (
{
layerId = "79BD7992-1179-43F8-A0C5-7244DBF16C0A";
paths = (
{
nodes = (
"51 112 LINE",
"179 112 LINE",
"179 0 LINE",
"51 -75 LINE"
);
},
{
nodes = (
"45 591 OFFCURVE",
"83 630 OFFCURVE",
"112 630 QCURVE SMOOTH",
"141 630 OFFCURVE",
"180 591 OFFCURVE",
"180 562 QCURVE SMOOTH",
"180 533 OFFCURVE",
"141 495 OFFCURVE",
"112 495 QCURVE SMOOTH",
"83 495 OFFCURVE",
"45 533 OFFCURVE",
"45 562 QCURVE SMOOTH"
);
}
);
width = 238;
}
);
unicode = 003B;
},
{
glyphname = less;
layers = (
{
layerId = "79BD7992-1179-43F8-A0C5-7244DBF16C0A";
paths = (
{
nodes = (
"34 160 LINE",
"258 332 LINE",
"34 504 LINE",
"103 605 LINE",
"394 382 LINE",
"394 278 LINE",
"103 59 LINE"
);
}
);
width = 422;
}
);
unicode = 003C;
},
{
glyphname = equal;
layers = (
{
layerId = "79BD7992-1179-43F8-A0C5-7244DBF16C0A";
paths = (
{
nodes = (
"808 498 LINE",
"808 419 LINE",
"27 419 LINE",
"27 498 LINE"
);
},
{
nodes = (
"808 284 LINE",
"808 205 LINE",
"27 205 LINE",
"27 284 LINE"
);
}
);
width = 832;
}
);
unicode = 003D;
},
{
glyphname = greater;
layers = (
{
layerId = "79BD7992-1179-43F8-A0C5-7244DBF16C0A";
paths = (
{
nodes = (
"34 160 LINE",
"258 332 LINE",
"34 504 LINE",
"103 605 LINE",
"394 382 LINE",
"394 278 LINE",
"103 59 LINE"
);
}
);
width = 422;
}
);
unicode = 003E;
},
{
glyphname = question;
layers = (
{
layerId = "79BD7992-1179-43F8-A0C5-7244DBF16C0A";
paths = (
{
nodes = (
"181 566 OFFCURVE",
"154 540 OFFCURVE",
"140 490 OFFCURVE",
"140 449 QCURVE",
"17 449 LINE",
"17 490 LINE SMOOTH",
"17 532 OFFCURVE",
"49 606 OFFCURVE",
"105 661 OFFCURVE",
"179 694 OFFCURVE",
"221 694 QCURVE",
"525 693 LINE",
"558 693 OFFCURVE",
"624 660 OFFCURVE",
"677 608 OFFCURVE",
"710 541 OFFCURVE",
"710 508 QCURVE",
"711 368 LINE",
"711 324 OFFCURVE",
"677 275 OFFCURVE",
"623 251 OFFCURVE",
"556 245 OFFCURVE",
"523 245 QCURVE",
"523 158 LINE",
"229 158 LINE",
"229 574 LINE",
"213 573 OFFCURVE",
"200 570 QCURVE SMOOTH"
);
},
{
nodes = (
"523 123 LINE",
"523 0 LINE",
"229 0 LINE",
"229 123 LINE"
);
}
);
width = 729;
}
);
unicode = 003F;
},
{
glyphname = at;
layers = (
{
layerId = "79BD7992-1179-43F8-A0C5-7244DBF16C0A";
paths = (
{
nodes = (
"436 631 OFFCURVE",
"560 577 OFFCURVE",
"652 484 OFFCURVE",
"706 359 OFFCURVE",
"706 288 QCURVE SMOOTH",
"706 231 OFFCURVE",
"690 180 QCURVE",
"690 179 LINE",
"689 178 LINE",
"689 176 LINE",
"688 175 LINE",
"688 174 LINE",
"687 171 OFFCURVE",
"685 167 QCURVE SMOOTH",
"683 161 OFFCURVE",
"677 146 OFFCURVE",
"653 105 QCURVE",
"281 104 LINE",
"264 104 OFFCURVE",
"228 118 OFFCURVE",
"199 143 OFFCURVE",
"182 177 OFFCURVE",
"182 195 QCURVE SMOOTH",
"182 234 LINE SMOOTH",
"182 252 OFFCURVE",
"196 287 OFFCURVE",
"221 316 OFFCURVE",
"254 334 OFFCURVE",
"272 334 QCURVE SMOOTH",
"332 334 LINE",
"332 423 LINE",
"182 423 LINE",
"181 484 LINE",
"498 484 LINE SMOOTH",
"514 484 OFFCURVE",
"547 467 OFFCURVE",
"573 441 OFFCURVE",
"589 409 OFFCURVE",
"589 393 QCURVE",
"590 139 LINE",
"622 139 LINE",
"652 189 OFFCURVE",
"663 261 OFFCURVE",
"663 288 QCURVE SMOOTH",
"663 349 OFFCURVE",
"616 458 OFFCURVE",
"536 540 OFFCURVE",
"427 587 OFFCURVE",
"366 587 QCURVE SMOOTH",
"304 587 OFFCURVE",
"196 540 OFFCURVE",
"114 458 OFFCURVE",
"67 349 OFFCURVE",
"67 288 QCURVE SMOOTH",
"67 226 OFFCURVE",
"114 118 OFFCURVE",
"196 38 OFFCURVE",
"304 -9 OFFCURVE",
"366 -9 QCURVE SMOOTH",
"415 -9 OFFCURVE",
"504 20 OFFCURVE",
"540 46 QCURVE",
"619 49 LINE",
"546 -12 OFFCURVE",
"426 -52 OFFCURVE",
"366 -52 QCURVE SMOOTH",
"295 -52 OFFCURVE",
"170 2 OFFCURVE",
"77 94 OFFCURVE",
"23 218 OFFCURVE",
"23 288 QCURVE SMOOTH",
"23 359 OFFCURVE",
"77 484 OFFCURVE",
"170 577 OFFCURVE",
"295 631 OFFCURVE",
"366 631 QCURVE SMOOTH"
);
},
{
nodes = (
"242 200 LINE SMOOTH",
"242 194 OFFCURVE",
"248 181 OFFCURVE",
"258 171 OFFCURVE",
"271 164 OFFCURVE",
"278 164 QCURVE SMOOTH",
"332 164 LINE",
"332 274 LINE",
"278 274 LINE SMOOTH",
"271 274 OFFCURVE",
"257 267 OFFCURVE",
"248 256 OFFCURVE",
"242 241 OFFCURVE",
"242 234 QCURVE SMOOTH"
);
}
);
width = 742;
}
);
unicode = 0040;
},
{
glyphname = C;
layers = (
{
layerId = "79BD7992-1179-43F8-A0C5-7244DBF16C0A";
paths = (
{
nodes = (
"485 696 LINE SMOOTH",
"524 696 OFFCURVE",
"591 660 OFFCURVE",
"641 601 OFFCURVE",
"670 528 OFFCURVE",
"671 492 QCURVE",
"548 492 LINE",
"548 496 LINE SMOOTH",
"548 508 OFFCURVE",
"536 535 OFFCURVE",
"516 558 OFFCURVE",
"489 573 OFFCURVE",
"474 573 QCURVE SMOOTH",
"388 573 LINE",
"388 123 LINE",
"474 123 LINE SMOOTH",
"489 123 OFFCURVE",
"516 138 OFFCURVE",
"536 162 OFFCURVE",
"548 189 OFFCURVE",
"548 201 QCURVE SMOOTH",
"548 205 LINE",
"671 205 LINE",
"670 163 OFFCURVE",
"638 88 OFFCURVE",
"584 32 OFFCURVE",
"510 0 OFFCURVE",
"467 0 QCURVE SMOOTH",
"206 0 LINE SMOOTH",
"167 0 OFFCURVE",
"100 37 OFFCURVE",
"49 95 OFFCURVE",
"20 169 OFFCURVE",
"20 205 QCURVE SMOOTH",
"20 492 LINE SMOOTH",
"20 528 OFFCURVE",
"49 601 OFFCURVE",
"100 659 OFFCURVE",
"167 696 OFFCURVE",
"206 696 QCURVE SMOOTH"
);
}
);
width = 692;
}
);
unicode = 0043;
},
{
glyphname = D;
layers = (
{
layerId = "79BD7992-1179-43F8-A0C5-7244DBF16C0A";
paths = (
{
nodes = (
"639 205 LINE SMOOTH",
"639 163 OFFCURVE",
"607 88 OFFCURVE",
"551 32 OFFCURVE",
"476 0 OFFCURVE",
"434 0 QCURVE SMOOTH",
"22 0 LINE",
"22 697 LINE",
"434 697 LINE SMOOTH",
"476 697 OFFCURVE",
"551 664 OFFCURVE",
"606 609 OFFCURVE",
"639 534 OFFCURVE",
"639 492 QCURVE SMOOTH"
);
},
{
nodes = (
"516 499 LINE SMOOTH",
"516 512 OFFCURVE",
"502 539 OFFCURVE",
"481 560 OFFCURVE",
"455 573 OFFCURVE",
"442 573 QCURVE SMOOTH",
"349 573 LINE",
"349 123 LINE",
"442 123 LINE SMOOTH",
"455 123 OFFCURVE",
"481 137 OFFCURVE",
"502 158 OFFCURVE",
"516 184 OFFCURVE",
"516 197 QCURVE SMOOTH"
);
}
);
width = 673;
}
);
unicode = 0044;
},
{
glyphname = E;
layers = (
{
layerId = "79BD7992-1179-43F8-A0C5-7244DBF16C0A";
paths = (
{
nodes = (
"349 419 LINE",
"524 419 LINE",
"524 315 LINE",
"349 315 LINE",
"349 123 LINE",
"525 123 LINE",
"525 0 LINE",
"22 0 LINE",
"22 696 LINE",
"525 696 LINE",
"525 573 LINE",
"349 573 LINE"
);
}
);
width = 553;
}
);
unicode = 0045;
},
{
glyphname = F;
layers = (
{
layerId = "79BD7992-1179-43F8-A0C5-7244DBF16C0A";
paths = (
{
nodes = (
"360 420 LINE",
"520 420 LINE",
"520 305 LINE",
"360 305 LINE",
"360 0 LINE",
"33 0 LINE",
"33 697 LINE",
"519 697 LINE",
"519 574 LINE",
"360 574 LINE"
);
}
);
width = 552;
}
);
unicode = 0046;
},
{
glyphname = G;
layers = (
{
layerId = "79BD7992-1179-43F8-A0C5-7244DBF16C0A";
paths = (
{
nodes = (
"511 696 LINE SMOOTH",
"550 696 OFFCURVE",
"617 660 OFFCURVE",
"667 601 OFFCURVE",
"696 528 OFFCURVE",
"697 492 QCURVE",
"574 492 LINE",
"574 496 LINE SMOOTH",
"574 508 OFFCURVE",
"562 535 OFFCURVE",
"542 558 OFFCURVE",
"515 573 OFFCURVE",
"500 573 QCURVE SMOOTH",
"402 573 LINE",
"402 123 LINE",
"480 123 LINE",
"488 124 OFFCURVE",
"497 126 QCURVE SMOOTH",
"514 130 OFFCURVE",
"529 137 QCURVE SMOOTH",
"567 156 OFFCURVE",
"567 197 QCURVE SMOOTH",
"567 205 LINE",
"503 205 LINE",
"503 328 LINE",
"690 328 LINE",
"690 205 LINE SMOOTH",
"690 163 OFFCURVE",
"657 89 OFFCURVE",
"602 33 OFFCURVE",
"564 16 QCURVE SMOOTH",
"530 1 OFFCURVE",
"493 0 QCURVE",
"220 0 LINE SMOOTH",
"181 0 OFFCURVE",
"114 37 OFFCURVE",
"63 95 OFFCURVE",
"34 169 OFFCURVE",
"34 205 QCURVE SMOOTH",
"34 492 LINE SMOOTH",
"34 528 OFFCURVE",
"63 601 OFFCURVE",
"114 659 OFFCURVE",
"181 696 OFFCURVE",
"220 696 QCURVE SMOOTH"
);
}
);
width = 711;
}
);
unicode = 0047;
},
{
glyphname = H;
layers = (
{
layerId = "79BD7992-1179-43F8-A0C5-7244DBF16C0A";
paths = (
{
nodes = (
"563 256 LINE",
"563 697 LINE",
"686 697 LINE",
"686 0 LINE",
"563 0 LINE",
"563 142 LINE",
"401 142 LINE",
"401 0 LINE",
"32 0 LINE",
"32 697 LINE",
"401 697 LINE",
"401 256 LINE"
);
}
);
width = 717;
}
);
unicode = 0048;
},
{
glyphname = I;
layers = (
{
layerId = "79BD7992-1179-43F8-A0C5-7244DBF16C0A";
paths = (
{
nodes = (
"361 696 LINE",
"361 0 LINE",
"34 0 LINE",
"34 696 LINE"
);
}
);
width = 397;
}
);
unicode = 0049;
},
{
glyphname = J;
layers = (
{
layerId = "79BD7992-1179-43F8-A0C5-7244DBF16C0A";
paths = (
{
nodes = (
"441 697 LINE",
"441 205 LINE SMOOTH",
"441 163 OFFCURVE",
"408 88 OFFCURVE",
"353 33 OFFCURVE",
"278 0 OFFCURVE",
"236 0 QCURVE SMOOTH",
"41 0 LINE",
"41 123 LINE",
"113 123 LINE",
"113 697 LINE"
);
}
);
width = 477;
}
);
unicode = 004A;
},
{
glyphname = K;
layers = (
{
layerId = "79BD7992-1179-43F8-A0C5-7244DBF16C0A";
paths = (
{
nodes = (
"681 0 LINE",
"558 0 LINE",
"433 265 LINE",
"411 223 LINE",
"411 0 LINE",
"42 0 LINE",
"42 697 LINE",
"411 697 LINE",
"411 452 LINE",
"539 697 LINE",
"662 697 LINE",
"497 386 LINE"
);
}
);
width = 691;
}
);
unicode = 004B;
},
{
glyphname = L;
layers = (
{
layerId = "79BD7992-1179-43F8-A0C5-7244DBF16C0A";
paths = (
{
nodes = (
"580 123 LINE",
"580 0 LINE",
"26 0 LINE",
"26 697 LINE",
"354 697 LINE",
"354 123 LINE"
);
}
);
width = 605;
}
);
unicode = 004C;
},
{
glyphname = M;
layers = (
{
layerId = "79BD7992-1179-43F8-A0C5-7244DBF16C0A";
paths = (
{
nodes = (
"410 696 LINE",
"529 495 LINE",
"648 696 LINE",
"1016 696 LINE",
"1016 0 LINE",
"648 0 LINE",
"648 493 LINE",
"531 289 LINE",
"531 286 LINE",
"411 493 LINE",
"410 0 LINE",
"42 0 LINE",
"42 696 LINE"
);
}
);
width = 1068;
}
);
unicode = 004D;
},
{
glyphname = P;
layers = (
{
layerId = "79BD7992-1179-43F8-A0C5-7244DBF16C0A";
paths = (
{
nodes = (
"390 287 LINE",
"390 0 LINE",
"21 0 LINE",
"21 696 LINE",
"427 696 LINE SMOOTH",
"466 696 OFFCURVE",
"535 659 OFFCURVE",
"585 601 OFFCURVE",
"614 528 OFFCURVE",
"614 492 QCURVE SMOOTH",
"614 447 OFFCURVE",
"584 372 OFFCURVE",
"530 318 OFFCURVE",
"454 288 OFFCURVE",
"408 287 QCURVE"
);
},
{
nodes = (
"491 507 OFFCURVE",
"479 536 OFFCURVE",
"458 559 OFFCURVE",
"432 573 OFFCURVE",
"417 573 QCURVE SMOOTH",
"390 573 LINE",
"390 409 LINE",
"409 409 LINE SMOOTH",
"426 409 OFFCURVE",
"456 423 OFFCURVE",
"478 445 OFFCURVE",
"491 475 OFFCURVE",
"491 492 QCURVE SMOOTH"
);
}
);
width = 645;
}
);
unicode = 0050;
},
{
glyphname = R;
layers = (
{
layerId = "79BD7992-1179-43F8-A0C5-7244DBF16C0A";
paths = (
{
nodes = (
"401 287 LINE",
"401 0 LINE",
"32 0 LINE",
"32 696 LINE",
"438 696 LINE SMOOTH",
"477 696 OFFCURVE",
"546 659 OFFCURVE",
"596 601 OFFCURVE",
"625 528 OFFCURVE",
"625 492 QCURVE SMOOTH",
"625 447 OFFCURVE",
"595 372 OFFCURVE",
"568 345 QCURVE SMOOTH",
"548 325 OFFCURVE",
"523 312 QCURVE",
"642 0 LINE",
"532 0 LINE",
"418 287 LINE"
);
},
{
nodes = (
"502 507 OFFCURVE",
"490 536 OFFCURVE",
"469 559 OFFCURVE",
"443 573 OFFCURVE",
"428 573 QCURVE SMOOTH",
"401 573 LINE",
"401 409 LINE",
"420 409 LINE SMOOTH",
"437 409 OFFCURVE",
"467 423 OFFCURVE",
"489 445 OFFCURVE",
"502 475 OFFCURVE",
"502 492 QCURVE SMOOTH"
);
}
);
width = 661;
}
);
unicode = 0052;
},
{
glyphname = S;
layers = (
{
layerId = "79BD7992-1179-43F8-A0C5-7244DBF16C0A";
paths = (
{
nodes = (
"198 329 LINE",
"162 329 OFFCURVE",
"99 362 OFFCURVE",
"52 415 OFFCURVE",
"26 481 OFFCURVE",
"25 513 QCURVE",
"26 545 OFFCURVE",
"53 611 OFFCURVE",
"100 664 OFFCURVE",
"162 696 OFFCURVE",
"198 696 QCURVE SMOOTH",
"477 696 LINE SMOOTH",
"516 696 OFFCURVE",
"583 660 OFFCURVE",
"633 601 OFFCURVE",
"662 528 OFFCURVE",
"663 492 QCURVE",
"540 492 LINE",
"540 496 LINE SMOOTH",
"540 508 OFFCURVE",
"528 535 OFFCURVE",
"508 558 OFFCURVE",
"481 573 OFFCURVE",
"466 573 QCURVE SMOOTH",
"395 573 LINE",
"395 451 LINE",
"437 451 LINE",
"437 450 LINE",
"477 450 LINE SMOOTH",
"516 450 OFFCURVE",
"583 414 OFFCURVE",
"633 355 OFFCURVE",
"662 282 OFFCURVE",
"663 242 QCURVE",
"663 205 LINE SMOOTH",
"663 163 OFFCURVE",
"631 88 OFFCURVE",
"575 32 OFFCURVE",
"500 0 OFFCURVE",
"458 0 QCURVE",
"213 1 LINE",
"174 1 OFFCURVE",
"107 37 OFFCURVE",
"56 96 OFFCURVE",
"27 169 OFFCURVE",
"27 205 QCURVE SMOOTH",
"27 287 LINE",
"395 287 LINE",
"395 123 LINE",
"466 123 LINE SMOOTH",
"479 123 OFFCURVE",
"505 137 OFFCURVE",
"526 158 OFFCURVE",
"540 184 OFFCURVE",
"540 197 QCURVE SMOOTH",
"540 250 LINE SMOOTH",
"540 262 OFFCURVE",
"528 289 OFFCURVE",
"508 312 OFFCURVE",
"481 327 OFFCURVE",
"466 327 QCURVE SMOOTH",
"414 327 LINE",
"414 328 LINE"
);
}
);
width = 695;
}
);
unicode = 0053;
},
{
glyphname = T;
layers = (
{
layerId = "79BD7992-1179-43F8-A0C5-7244DBF16C0A";
paths = (
{
nodes = (
"626 697 LINE",
"626 574 LINE",
"491 574 LINE",
"491 0 LINE",
"163 0 LINE",
"163 574 LINE",
"32 574 LINE",
"32 697 LINE"
);
}
);
width = 661;
}
);
unicode = 0054;
},
{
glyphname = U;
layers = (
{
layerId = "79BD7992-1179-43F8-A0C5-7244DBF16C0A";
paths = (
{
nodes = (
"696 696 LINE",
"696 185 LINE SMOOTH",
"696 152 OFFCURVE",
"663 86 OFFCURVE",
"609 33 OFFCURVE",
"543 0 OFFCURVE",
"510 0 QCURVE",
"262 -1 LINE",
"226 -1 OFFCURVE",
"153 28 OFFCURVE",
"94 79 OFFCURVE",
"58 147 OFFCURVE",
"58 185 QCURVE SMOOTH",
"58 696 LINE",
"445 696 LINE",
"445 122 LINE",
"499 122 LINE SMOOTH",
"512 122 OFFCURVE",
"539 135 OFFCURVE",
"560 156 OFFCURVE",
"573 182 OFFCURVE",
"573 196 QCURVE SMOOTH",
"573 696 LINE"
);
}
);
width = 744;
}
);
unicode = 0055;
},
{
glyphname = X;
layers = (
{
layerId = "79BD7992-1179-43F8-A0C5-7244DBF16C0A";
paths = (
{
nodes = (
"512 266 LINE",
"712 0 LINE",
"554 0 LINE",
"450 134 LINE",
"388 0 LINE",
"16 0 LINE",
"213 442 LINE",
"16 697 LINE",
"187 697 LINE",
"275 580 LINE",
"327 697 LINE",
"712 697 LINE"
);
}
);
width = 727;
}
);
unicode = 0058;
},
{
glyphname = Z;
layers = (
{
layerId = "79BD7992-1179-43F8-A0C5-7244DBF16C0A";
paths = (
{
nodes = (
"246 573 LINE",
"16 573 LINE",
"16 696 LINE",
"651 696 LINE",
"651 573 LINE",
"422 122 LINE",
"651 122 LINE",
"651 0 LINE",
"16 0 LINE",
"16 123 LINE"
);
}
);
width = 671;
}
);
unicode = 005A;
},
{
glyphname = bracketleft;
layers = (
{
layerId = "79BD7992-1179-43F8-A0C5-7244DBF16C0A";
paths = (
{
nodes = (
"410 831 LINE",
"410 708 LINE",
"255 708 LINE",
"255 -12 LINE",
"410 -12 LINE",
"410 -134 LINE",
"29 -134 LINE",
"29 832 LINE"
);
}
);
width = 287;
}
);
unicode = 005B;
},
{
glyphname = bracketright;
layers = (
{
layerId = "79BD7992-1179-43F8-A0C5-7244DBF16C0A";
paths = (
{
nodes = (
"410 832 LINE",
"410 -134 LINE",
"29 -134 LINE",
"29 -12 LINE",
"184 -12 LINE",
"184 708 LINE",
"29 708 LINE",
"29 831 LINE"
);
}
);
width = 287;
}
);
unicode = 005D;
},
{
glyphname = underscore;
layers = (
{
layerId = "79BD7992-1179-43F8-A0C5-7244DBF16C0A";
paths = (
{
nodes = (
"561 -20 LINE",
"561 -97 LINE",
"20 -97 LINE",
"20 -20 LINE"
);
}
);
width = 594;
}
);
unicode = 005F;
},
{
glyphname = Euro;
layers = (
{
layerId = "79BD7992-1179-43F8-A0C5-7244DBF16C0A";
paths = (
{
nodes = (
"392 483 LINE",
"675 484 LINE",
"675 384 LINE",
"392 383 LINE",
"392 328 LINE",
"675 329 LINE",
"675 213 LINE",
"392 213 LINE",
"392 123 LINE",
"677 123 LINE",
"677 0 LINE",
"269 1 LINE",
"230 1 OFFCURVE",
"163 37 OFFCURVE",
"112 95 OFFCURVE",
"83 151 OFFCURVE",
"83 179 QCURVE SMOOTH",
"83 213 LINE",
"21 213 LINE",
"21 328 LINE",
"83 328 LINE",
"83 383 LINE",
"21 383 LINE",
"21 483 LINE",
"83 483 LINE",
"83 508 LINE SMOOTH",
"83 544 OFFCURVE",
"112 601 OFFCURVE",
"163 660 OFFCURVE",
"231 696 OFFCURVE",
"269 696 QCURVE SMOOTH",
"677 696 LINE",
"677 573 LINE",
"392 573 LINE"
);
}
);
width = 713;
}
);
unicode = 20AC;
},
{
glyphname = Q;
layers = (
{
layerId = "79BD7992-1179-43F8-A0C5-7244DBF16C0A";
paths = (
{
nodes = (
"543 262 LINE",
"543 492 LINE SMOOTH",
"543 507 OFFCURVE",
"531 536 OFFCURVE",
"511 559 OFFCURVE",
"484 573 OFFCURVE",
"469 573 QCURVE SMOOTH",
"392 573 LINE",
"392 123 LINE",
"413 123 LINE",
"471 0 LINE",
"462 0 LINE",
"210 1 LINE",
"171 1 OFFCURVE",
"103 37 OFFCURVE",
"52 95 OFFCURVE",
"23 168 OFFCURVE",
"23 205 QCURVE SMOOTH",
"23 510 LINE SMOOTH",
"23 543 OFFCURVE",
"57 609 OFFCURVE",
"110 663 OFFCURVE",
"177 696 OFFCURVE",
"210 696 QCURVE SMOOTH",
"480 696 LINE SMOOTH",
"518 696 OFFCURVE",
"586 659 OFFCURVE",
"637 601 OFFCURVE",
"666 528 OFFCURVE",
"666 492 QCURVE SMOOTH",
"666 186 LINE SMOOTH",
"666 148 OFFCURVE",
"648 114 QCURVE SMOOTH",
"641 100 OFFCURVE",
"632 88 QCURVE"
);
},
{
nodes = (
"537 214 LINE",
"403 214 LINE",
"504 0 LINE",
"644 0 LINE"
);
}
);
width = 711;
}
);
unicode = 0051;
},
{
glyphname = Y;
layers = (
{
layerId = "79BD7992-1179-43F8-A0C5-7244DBF16C0A";
paths = (
{
nodes = (
"301 696 LINE",
"688 696 LINE",
"428 0 LINE",
"32 0 LINE",
"201 456 LINE",
"29 696 LINE",
"163 696 LINE",
"253 574 LINE"
);
}
);
width = 713;
}
);
unicode = 0059;
},
{
glyphname = V;
layers = (
{
layerId = "79BD7992-1179-43F8-A0C5-7244DBF16C0A";
paths = (
{
nodes = (
"545 439 LINE",
"661 696 LINE",
"801 696 LINE",
"478 0 LINE",
"339 0 LINE",
"22 696 LINE",
"432 696 LINE"
);
}
);
width = 812;
}
);
unicode = 0056;
},
{
glyphname = W;
layers = (
{
layerId = "79BD7992-1179-43F8-A0C5-7244DBF16C0A";
paths = (
{
nodes = (
"1040 439 LINE",
"1156 696 LINE",
"1296 696 LINE",
"973 0 LINE",
"834 0 LINE",
"657 387 LINE",
"478 0 LINE",
"339 0 LINE",
"22 696 LINE",
"432 696 LINE",
"545 439 LINE",
"660 696 LINE",
"927 696 LINE"
);
}
);
width = 1317;
}
);
unicode = 0057;
},
{
glyphname = b;
layers = (
{
layerId = "79BD7992-1179-43F8-A0C5-7244DBF16C0A";
paths = (
{
nodes = (
"18 695 LINE",
"429 695 LINE SMOOTH",
"491 695 OFFCURVE",
"572 655 OFFCURVE",
"631 585 OFFCURVE",
"649 508 OFFCURVE",
"635 438 QCURVE",
"628 411 OFFCURVE",
"601 376 QCURVE",
"645 333 OFFCURVE",
"654 283 QCURVE",
"664 204 OFFCURVE",
"631 110 OFFCURVE",
"572 40 OFFCURVE",
"491 0 OFFCURVE",
"429 0 QCURVE SMOOTH",
"18 0 LINE"
);
},
{
nodes = (
"549 261 OFFCURVE",
"490 320 OFFCURVE",
"445 320 QCURVE",
"445 112 LINE",
"490 112 OFFCURVE",
"549 171 OFFCURVE",
"549 216 QCURVE SMOOTH"
);
},
{
nodes = (
"538 539 OFFCURVE",
"484 594 OFFCURVE",
"443 594 QCURVE",
"443 399 LINE",
"484 399 OFFCURVE",
"538 455 OFFCURVE",
"538 497 QCURVE SMOOTH"
);
}
);
width = 692;
}
);
unicode = 0062;
},
{
glyphname = c;
layers = (
{
layerId = "79BD7992-1179-43F8-A0C5-7244DBF16C0A";
paths = (
{
nodes = (
"485 696 LINE SMOOTH",
"524 696 OFFCURVE",
"591 660 OFFCURVE",
"641 601 OFFCURVE",
"670 528 OFFCURVE",
"671 492 QCURVE",
"548 492 LINE",
"548 496 LINE SMOOTH",
"548 508 OFFCURVE",
"536 535 OFFCURVE",
"516 558 OFFCURVE",
"489 573 OFFCURVE",
"474 573 QCURVE SMOOTH",
"388 573 LINE",
"388 123 LINE",
"474 123 LINE SMOOTH",
"489 123 OFFCURVE",
"516 138 OFFCURVE",
"536 162 OFFCURVE",
"548 189 OFFCURVE",
"548 201 QCURVE SMOOTH",
"548 205 LINE",
"671 205 LINE",
"670 163 OFFCURVE",
"638 88 OFFCURVE",
"584 32 OFFCURVE",
"510 0 OFFCURVE",
"467 0 QCURVE SMOOTH",
"206 0 LINE SMOOTH",
"167 0 OFFCURVE",
"100 37 OFFCURVE",
"49 95 OFFCURVE",
"20 169 OFFCURVE",
"20 205 QCURVE SMOOTH",
"20 492 LINE SMOOTH",
"20 528 OFFCURVE",
"49 601 OFFCURVE",
"100 659 OFFCURVE",
"167 696 OFFCURVE",
"206 696 QCURVE SMOOTH"
);
}
);
width = 692;
}
);
unicode = 0063;
},
{
glyphname = d;
layers = (
{
layerId = "79BD7992-1179-43F8-A0C5-7244DBF16C0A";
paths = (
{
nodes = (
"639 205 LINE SMOOTH",
"639 163 OFFCURVE",
"607 88 OFFCURVE",
"551 32 OFFCURVE",
"476 0 OFFCURVE",
"434 0 QCURVE SMOOTH",
"22 0 LINE",
"22 697 LINE",
"434 697 LINE SMOOTH",
"476 697 OFFCURVE",
"551 664 OFFCURVE",
"606 609 OFFCURVE",
"639 534 OFFCURVE",
"639 492 QCURVE SMOOTH"
);
},
{
nodes = (
"516 499 LINE SMOOTH",
"516 512 OFFCURVE",
"502 539 OFFCURVE",
"481 560 OFFCURVE",
"455 573 OFFCURVE",
"442 573 QCURVE SMOOTH",
"349 573 LINE",
"349 123 LINE",
"442 123 LINE SMOOTH",
"455 123 OFFCURVE",
"481 137 OFFCURVE",
"502 158 OFFCURVE",
"516 184 OFFCURVE",
"516 197 QCURVE SMOOTH"
);
}
);
width = 673;
}
);
unicode = 0064;
},
{
glyphname = f;
layers = (
{
layerId = "79BD7992-1179-43F8-A0C5-7244DBF16C0A";
paths = (
{
nodes = (
"360 420 LINE",
"520 420 LINE",
"520 305 LINE",
"360 305 LINE",
"360 0 LINE",
"33 0 LINE",
"33 697 LINE",
"519 697 LINE",
"519 574 LINE",
"360 574 LINE"
);
}
);
width = 552;
}
);
unicode = 0066;
},
{
glyphname = g;
layers = (
{
layerId = "79BD7992-1179-43F8-A0C5-7244DBF16C0A";
paths = (
{
nodes = (
"511 696 LINE SMOOTH",
"550 696 OFFCURVE",
"617 660 OFFCURVE",
"667 601 OFFCURVE",
"696 528 OFFCURVE",
"697 492 QCURVE",
"574 492 LINE",
"574 496 LINE SMOOTH",
"574 508 OFFCURVE",
"562 535 OFFCURVE",
"542 558 OFFCURVE",
"515 573 OFFCURVE",
"500 573 QCURVE SMOOTH",
"402 573 LINE",
"402 123 LINE",
"480 123 LINE",
"488 124 OFFCURVE",
"497 126 QCURVE SMOOTH",
"514 130 OFFCURVE",
"529 137 QCURVE SMOOTH",
"567 156 OFFCURVE",
"567 197 QCURVE SMOOTH",
"567 205 LINE",
"503 205 LINE",
"503 328 LINE",
"690 328 LINE",
"690 205 LINE SMOOTH",
"690 163 OFFCURVE",
"657 89 OFFCURVE",
"602 33 OFFCURVE",
"564 16 QCURVE SMOOTH",
"530 1 OFFCURVE",
"493 0 QCURVE",
"220 0 LINE SMOOTH",
"181 0 OFFCURVE",
"114 37 OFFCURVE",
"63 95 OFFCURVE",
"34 169 OFFCURVE",
"34 205 QCURVE SMOOTH",
"34 492 LINE SMOOTH",
"34 528 OFFCURVE",
"63 601 OFFCURVE",
"114 659 OFFCURVE",
"181 696 OFFCURVE",
"220 696 QCURVE SMOOTH"
);
}
);
width = 711;
}
);
unicode = 0067;
},
{
glyphname = h;
layers = (
{
layerId = "79BD7992-1179-43F8-A0C5-7244DBF16C0A";
paths = (
{
nodes = (
"563 256 LINE",
"563 697 LINE",
"686 697 LINE",
"686 0 LINE",
"563 0 LINE",
"563 142 LINE",
"401 142 LINE",
"401 0 LINE",
"32 0 LINE",
"32 697 LINE",
"401 697 LINE",
"401 256 LINE"
);
}
);
width = 717;
}
);
unicode = 0068;
},
{
glyphname = i;
layers = (
{
layerId = "79BD7992-1179-43F8-A0C5-7244DBF16C0A";
paths = (
{
nodes = (
"361 696 LINE",
"361 0 LINE",
"34 0 LINE",
"34 696 LINE"
);
}
);
width = 397;
}
);
unicode = 0069;
},
{
glyphname = j;
layers = (
{
layerId = "79BD7992-1179-43F8-A0C5-7244DBF16C0A";
paths = (
{
nodes = (
"441 697 LINE",
"441 205 LINE SMOOTH",
"441 163 OFFCURVE",
"408 88 OFFCURVE",
"353 33 OFFCURVE",
"278 0 OFFCURVE",
"236 0 QCURVE SMOOTH",
"41 0 LINE",
"41 123 LINE",
"113 123 LINE",
"113 697 LINE"
);
}
);
width = 477;
}
);
unicode = 006A;
},
{
glyphname = l;
layers = (
{
layerId = "79BD7992-1179-43F8-A0C5-7244DBF16C0A";
paths = (
{
nodes = (
"580 123 LINE",
"580 0 LINE",
"26 0 LINE",
"26 697 LINE",
"354 697 LINE",
"354 123 LINE"
);
}
);
width = 605;
}
);
unicode = 006C;
},
{
glyphname = o;
layers = (
{
layerId = "79BD7992-1179-43F8-A0C5-7244DBF16C0A";
paths = (
{
nodes = (
"666 186 LINE SMOOTH",
"666 148 OFFCURVE",
"630 80 OFFCURVE",
"571 29 OFFCURVE",
"498 0 OFFCURVE",
"462 0 QCURVE",
"210 1 LINE",
"171 1 OFFCURVE",
"103 37 OFFCURVE",
"52 95 OFFCURVE",
"23 168 OFFCURVE",
"23 205 QCURVE SMOOTH",
"23 510 LINE SMOOTH",
"23 543 OFFCURVE",
"57 609 OFFCURVE",
"110 663 OFFCURVE",
"177 696 OFFCURVE",
"210 696 QCURVE SMOOTH",
"480 696 LINE SMOOTH",
"518 696 OFFCURVE",
"586 659 OFFCURVE",
"637 601 OFFCURVE",
"666 528 OFFCURVE",
"666 492 QCURVE SMOOTH"
);
},
{
nodes = (
"543 492 LINE SMOOTH",
"543 507 OFFCURVE",
"531 536 OFFCURVE",
"511 559 OFFCURVE",
"484 573 OFFCURVE",
"469 573 QCURVE SMOOTH",
"392 573 LINE",
"392 123 LINE",
"469 123 LINE SMOOTH",
"482 123 OFFCURVE",
"509 136 OFFCURVE",
"530 157 OFFCURVE",
"543 183 OFFCURVE",
"543 197 QCURVE SMOOTH"
);
}
);
width = 711;
}
);
unicode = 006F;
},
{
glyphname = p;
layers = (
{
layerId = "79BD7992-1179-43F8-A0C5-7244DBF16C0A";
paths = (
{
nodes = (
"390 287 LINE",
"390 0 LINE",
"21 0 LINE",
"21 696 LINE",
"427 696 LINE SMOOTH",
"466 696 OFFCURVE",
"535 659 OFFCURVE",
"585 601 OFFCURVE",
"614 528 OFFCURVE",
"614 492 QCURVE SMOOTH",
"614 447 OFFCURVE",
"584 372 OFFCURVE",
"530 318 OFFCURVE",
"454 288 OFFCURVE",
"408 287 QCURVE"
);
},
{
nodes = (
"491 507 OFFCURVE",
"479 536 OFFCURVE",
"458 559 OFFCURVE",
"432 573 OFFCURVE",
"417 573 QCURVE SMOOTH",
"390 573 LINE",
"390 409 LINE",
"409 409 LINE SMOOTH",
"426 409 OFFCURVE",
"456 423 OFFCURVE",
"478 445 OFFCURVE",
"491 475 OFFCURVE",
"491 492 QCURVE SMOOTH"
);
}
);
width = 645;
}
);
unicode = 0070;
},
{
glyphname = q;
layers = (
{
layerId = "79BD7992-1179-43F8-A0C5-7244DBF16C0A";
paths = (
{
nodes = (
"543 262 LINE",
"543 492 LINE SMOOTH",
"543 507 OFFCURVE",
"531 536 OFFCURVE",
"511 559 OFFCURVE",
"484 573 OFFCURVE",
"469 573 QCURVE SMOOTH",
"392 573 LINE",
"392 123 LINE",
"413 123 LINE",
"471 0 LINE",
"462 0 LINE",
"210 1 LINE",
"171 1 OFFCURVE",
"103 37 OFFCURVE",
"52 95 OFFCURVE",
"23 168 OFFCURVE",
"23 205 QCURVE SMOOTH",
"23 510 LINE SMOOTH",
"23 543 OFFCURVE",
"57 609 OFFCURVE",
"110 663 OFFCURVE",
"177 696 OFFCURVE",
"210 696 QCURVE SMOOTH",
"480 696 LINE SMOOTH",
"518 696 OFFCURVE",
"586 659 OFFCURVE",
"637 601 OFFCURVE",
"666 528 OFFCURVE",
"666 492 QCURVE SMOOTH",
"666 186 LINE SMOOTH",
"666 148 OFFCURVE",
"648 114 QCURVE SMOOTH",
"641 100 OFFCURVE",
"632 88 QCURVE"
);
},
{
nodes = (
"537 214 LINE",
"403 214 LINE",
"504 0 LINE",
"644 0 LINE"
);
}
);
width = 711;
}
);
unicode = 0071;
},
{
glyphname = r;
layers = (
{
layerId = "79BD7992-1179-43F8-A0C5-7244DBF16C0A";
paths = (
{
nodes = (
"401 287 LINE",
"401 0 LINE",
"32 0 LINE",
"32 696 LINE",
"438 696 LINE SMOOTH",
"477 696 OFFCURVE",
"546 659 OFFCURVE",
"596 601 OFFCURVE",
"625 528 OFFCURVE",
"625 492 QCURVE SMOOTH",
"625 447 OFFCURVE",
"595 372 OFFCURVE",
"568 345 QCURVE SMOOTH",
"548 325 OFFCURVE",
"523 312 QCURVE",
"642 0 LINE",
"532 0 LINE",
"418 287 LINE"
);
},
{
nodes = (
"502 507 OFFCURVE",
"490 536 OFFCURVE",
"469 559 OFFCURVE",
"443 573 OFFCURVE",
"428 573 QCURVE SMOOTH",
"401 573 LINE",
"401 409 LINE",
"420 409 LINE SMOOTH",
"437 409 OFFCURVE",
"467 423 OFFCURVE",
"489 445 OFFCURVE",
"502 475 OFFCURVE",
"502 492 QCURVE SMOOTH"
);
}
);
width = 661;
}
);
unicode = 0072;
},
{
glyphname = t;
layers = (
{
layerId = "79BD7992-1179-43F8-A0C5-7244DBF16C0A";
paths = (
{
nodes = (
"626 697 LINE",
"626 574 LINE",
"491 574 LINE",
"491 0 LINE",
"163 0 LINE",
"163 574 LINE",
"32 574 LINE",
"32 697 LINE"
);
}
);
width = 661;
}
);
unicode = 0074;
},
{
glyphname = u;
layers = (
{
layerId = "79BD7992-1179-43F8-A0C5-7244DBF16C0A";
paths = (
{
nodes = (
"696 696 LINE",
"696 185 LINE SMOOTH",
"696 152 OFFCURVE",
"663 86 OFFCURVE",
"609 33 OFFCURVE",
"543 0 OFFCURVE",
"510 0 QCURVE",
"262 -1 LINE",
"226 -1 OFFCURVE",
"153 28 OFFCURVE",
"94 79 OFFCURVE",
"58 147 OFFCURVE",
"58 185 QCURVE SMOOTH",
"58 696 LINE",
"445 696 LINE",
"445 122 LINE",
"499 122 LINE SMOOTH",
"512 122 OFFCURVE",
"539 135 OFFCURVE",
"560 156 OFFCURVE",
"573 182 OFFCURVE",
"573 196 QCURVE SMOOTH",
"573 696 LINE"
);
}
);
width = 744;
}
);
unicode = 0075;
},
{
glyphname = v;
layers = (
{
layerId = "79BD7992-1179-43F8-A0C5-7244DBF16C0A";
paths = (
{
nodes = (
"545 439 LINE",
"661 696 LINE",
"801 696 LINE",
"478 0 LINE",
"339 0 LINE",
"22 696 LINE",
"432 696 LINE"
);
}
);
width = 812;
}
);
unicode = 0076;
},
{
glyphname = w;
layers = (
{
layerId = "79BD7992-1179-43F8-A0C5-7244DBF16C0A";
paths = (
{
nodes = (
"1040 439 LINE",
"1156 696 LINE",
"1296 696 LINE",
"973 0 LINE",
"834 0 LINE",
"657 387 LINE",
"478 0 LINE",
"339 0 LINE",
"22 696 LINE",
"432 696 LINE",
"545 439 LINE",
"660 696 LINE",
"927 696 LINE"
);
}
);
width = 1317;
}
);
unicode = 0077;
},
{
glyphname = x;
layers = (
{
layerId = "79BD7992-1179-43F8-A0C5-7244DBF16C0A";
paths = (
{
nodes = (
"512 266 LINE",
"712 0 LINE",
"554 0 LINE",
"450 134 LINE",
"388 0 LINE",
"16 0 LINE",
"213 442 LINE",
"16 697 LINE",
"187 697 LINE",
"275 580 LINE",
"327 697 LINE",
"712 697 LINE"
);
}
);
width = 727;
}
);
unicode = 0078;
},
{
glyphname = y;
layers = (
{
layerId = "79BD7992-1179-43F8-A0C5-7244DBF16C0A";
paths = (
{
nodes = (
"301 696 LINE",
"688 696 LINE",
"428 0 LINE",
"32 0 LINE",
"201 456 LINE",
"29 696 LINE",
"163 696 LINE",
"253 574 LINE"
);
}
);
width = 713;
}
);
unicode = 0079;
},
{
glyphname = z;
layers = (
{
layerId = "79BD7992-1179-43F8-A0C5-7244DBF16C0A";
paths = (
{
nodes = (
"246 573 LINE",
"16 573 LINE",
"16 696 LINE",
"651 696 LINE",
"651 573 LINE",
"422 122 LINE",
"651 122 LINE",
"651 0 LINE",
"16 0 LINE",
"16 123 LINE"
);
}
);
width = 671;
}
);
unicode = 007A;
},
{
glyphname = e;
layers = (
{
layerId = "79BD7992-1179-43F8-A0C5-7244DBF16C0A";
paths = (
{
nodes = (
"349 419 LINE",
"524 419 LINE",
"524 315 LINE",
"349 315 LINE",
"349 123 LINE",
"525 123 LINE",
"525 0 LINE",
"22 0 LINE",
"22 696 LINE",
"525 696 LINE",
"525 573 LINE",
"349 573 LINE"
);
}
);
width = 553;
}
);
unicode = 0065;
},
{
glyphname = N;
layers = (
{
layerId = "79BD7992-1179-43F8-A0C5-7244DBF16C0A";
paths = (
{
nodes = (
"413 697 LINE",
"575 420 LINE",
"575 697 LINE",
"698 697 LINE",
"698 0 LINE",
"575 0 LINE",
"575 172 LINE",
"413 446 LINE",
"413 0 LINE",
"44 0 LINE",
"44 697 LINE"
);
}
);
width = 742;
}
);
unicode = 004E;
},
{
glyphname = s;
layers = (
{
layerId = "79BD7992-1179-43F8-A0C5-7244DBF16C0A";
paths = (
{
nodes = (
"198 329 LINE",
"162 329 OFFCURVE",
"99 362 OFFCURVE",
"52 415 OFFCURVE",
"26 481 OFFCURVE",
"25 513 QCURVE",
"26 545 OFFCURVE",
"53 611 OFFCURVE",
"100 664 OFFCURVE",
"162 696 OFFCURVE",
"198 696 QCURVE SMOOTH",
"477 696 LINE SMOOTH",
"516 696 OFFCURVE",
"583 660 OFFCURVE",
"633 601 OFFCURVE",
"662 528 OFFCURVE",
"663 492 QCURVE",
"540 492 LINE",
"540 496 LINE SMOOTH",
"540 508 OFFCURVE",
"528 535 OFFCURVE",
"508 558 OFFCURVE",
"481 573 OFFCURVE",
"466 573 QCURVE SMOOTH",
"395 573 LINE",
"395 451 LINE",
"437 451 LINE",
"437 450 LINE",
"477 450 LINE SMOOTH",
"516 450 OFFCURVE",
"583 414 OFFCURVE",
"633 355 OFFCURVE",
"662 282 OFFCURVE",
"663 242 QCURVE",
"663 205 LINE SMOOTH",
"663 163 OFFCURVE",
"631 88 OFFCURVE",
"575 32 OFFCURVE",
"500 0 OFFCURVE",
"458 0 QCURVE",
"213 1 LINE",
"174 1 OFFCURVE",
"107 37 OFFCURVE",
"56 96 OFFCURVE",
"27 169 OFFCURVE",
"27 205 QCURVE SMOOTH",
"27 287 LINE",
"395 287 LINE",
"395 123 LINE",
"466 123 LINE SMOOTH",
"479 123 OFFCURVE",
"505 137 OFFCURVE",
"526 158 OFFCURVE",
"540 184 OFFCURVE",
"540 197 QCURVE SMOOTH",
"540 250 LINE SMOOTH",
"540 262 OFFCURVE",
"528 289 OFFCURVE",
"508 312 OFFCURVE",
"481 327 OFFCURVE",
"466 327 QCURVE SMOOTH",
"414 327 LINE",
"414 328 LINE"
);
}
);
width = 695;
}
);
unicode = 0073;
},
{
glyphname = B;
layers = (
{
layerId = "79BD7992-1179-43F8-A0C5-7244DBF16C0A";
paths = (
{
nodes = (
"18 695 LINE",
"429 695 LINE SMOOTH",
"491 695 OFFCURVE",
"572 655 OFFCURVE",
"631 585 OFFCURVE",
"649 508 OFFCURVE",
"635 438 QCURVE",
"628 411 OFFCURVE",
"601 376 QCURVE",
"645 333 OFFCURVE",
"654 283 QCURVE",
"664 204 OFFCURVE",
"631 110 OFFCURVE",
"572 40 OFFCURVE",
"491 0 OFFCURVE",
"429 0 QCURVE SMOOTH",
"18 0 LINE"
);
},
{
nodes = (
"549 261 OFFCURVE",
"490 320 OFFCURVE",
"445 320 QCURVE",
"445 112 LINE",
"490 112 OFFCURVE",
"549 171 OFFCURVE",
"549 216 QCURVE SMOOTH"
);
},
{
nodes = (
"538 539 OFFCURVE",
"484 594 OFFCURVE",
"443 594 QCURVE",
"443 399 LINE",
"484 399 OFFCURVE",
"538 455 OFFCURVE",
"538 497 QCURVE SMOOTH"
);
}
);
width = 692;
}
);
unicode = 0042;
},
{
glyphname = eight;
layers = (
{
layerId = "79BD7992-1179-43F8-A0C5-7244DBF16C0A";
paths = (
{
nodes = (
"429 695 LINE SMOOTH",
"491 695 OFFCURVE",
"572 655 OFFCURVE",
"631 585 OFFCURVE",
"649 508 OFFCURVE",
"635 438 QCURVE",
"628 411 OFFCURVE",
"601 376 QCURVE",
"645 333 OFFCURVE",
"654 283 QCURVE",
"664 204 OFFCURVE",
"631 110 OFFCURVE",
"572 40 OFFCURVE",
"491 0 OFFCURVE",
"429 0 QCURVE SMOOTH",
"259 0 LINE SMOOTH",
"197 0 OFFCURVE",
"116 40 OFFCURVE",
"57 110 OFFCURVE",
"24 204 OFFCURVE",
"34 283 QCURVE",
"43 333 OFFCURVE",
"87 376 QCURVE",
"60 411 OFFCURVE",
"53 438 QCURVE",
"39 508 OFFCURVE",
"57 585 OFFCURVE",
"116 655 OFFCURVE",
"197 695 OFFCURVE",
"259 695 QCURVE SMOOTH"
);
},
{
nodes = (
"549 261 OFFCURVE",
"490 320 OFFCURVE",
"445 320 QCURVE",
"445 112 LINE",
"490 112 OFFCURVE",
"549 171 OFFCURVE",
"549 216 QCURVE SMOOTH"
);
},
{
nodes = (
"538 539 OFFCURVE",
"484 594 OFFCURVE",
"443 594 QCURVE",
"443 399 LINE",
"484 399 OFFCURVE",
"538 455 OFFCURVE",
"538 497 QCURVE SMOOTH"
);
}
);
width = 692;
}
);
unicode = 0038;
},
{
glyphname = m;
layers = (
{
layerId = "79BD7992-1179-43F8-A0C5-7244DBF16C0A";
paths = (
{
nodes = (
"410 696 LINE",
"529 495 LINE",
"648 696 LINE",
"1016 696 LINE",
"1016 0 LINE",
"648 0 LINE",
"648 493 LINE",
"531 289 LINE",
"531 286 LINE",
"411 493 LINE",
"410 0 LINE",
"42 0 LINE",
"42 696 LINE"
);
}
);
width = 1068;
}
);
unicode = 006D;
},
{
glyphname = n;
layers = (
{
layerId = "79BD7992-1179-43F8-A0C5-7244DBF16C0A";
paths = (
{
nodes = (
"413 697 LINE",
"575 420 LINE",
"575 697 LINE",
"698 697 LINE",
"698 0 LINE",
"575 0 LINE",
"575 172 LINE",
"413 446 LINE",
"413 0 LINE",
"44 0 LINE",
"44 697 LINE"
);
}
);
width = 742;
}
);
unicode = 006E;
},
{
glyphname = k;
layers = (
{
layerId = "79BD7992-1179-43F8-A0C5-7244DBF16C0A";
paths = (
{
nodes = (
"681 0 LINE",
"558 0 LINE",
"433 265 LINE",
"411 223 LINE",
"411 0 LINE",
"42 0 LINE",
"42 697 LINE",
"411 697 LINE",
"411 452 LINE",
"539 697 LINE",
"662 697 LINE",
"497 386 LINE"
);
}
);
width = 691;
}
);
unicode = 006B;
},
{
glyphname = exclam;
layers = (
{
layerId = "79BD7992-1179-43F8-A0C5-7244DBF16C0A";
paths = (
{
nodes = (
"355 694 LINE",
"355 179 LINE",
"28 179 LINE",
"28 694 LINE"
);
},
{
nodes = (
"355 120 LINE",
"355 0 LINE",
"28 0 LINE",
"28 122 LINE"
);
}
);
width = 384;
}
);
unicode = 0021;
},
{
glyphname = A;
layers = (
{
layerId = "79BD7992-1179-43F8-A0C5-7244DBF16C0A";
paths = (
{
nodes = (
"131 0 LINE",
"10 0 LINE",
"280 696 LINE",
"548 696 LINE",
"817 0 LINE",
"407 0 LINE",
"372 87 LINE",
"164 87 LINE"
);
},
{
nodes = (
"334 185 LINE",
"269 352 LINE",
"203 185 LINE"
);
}
);
width = 829;
}
);
unicode = 0041;
},
{
glyphname = a;
layers = (
{
layerId = "79BD7992-1179-43F8-A0C5-7244DBF16C0A";
paths = (
{
nodes = (
"131 0 LINE",
"10 0 LINE",
"280 696 LINE",
"548 696 LINE",
"817 0 LINE",
"407 0 LINE",
"372 87 LINE",
"164 87 LINE"
);
},
{
nodes = (
"334 185 LINE",
"269 352 LINE",
"203 185 LINE"
);
}
);
width = 829;
}
);
unicode = 0061;
},
{
glyphname = dieresis;
layers = (
{
layerId = "79BD7992-1179-43F8-A0C5-7244DBF16C0A";
paths = (
{
nodes = (
"65 849 OFFCURVE",
"108 892 OFFCURVE",
"140 892 QCURVE SMOOTH",
"172 892 OFFCURVE",
"215 849 OFFCURVE",
"215 817 QCURVE SMOOTH",
"215 785 OFFCURVE",
"172 743 OFFCURVE",
"140 743 QCURVE SMOOTH",
"108 743 OFFCURVE",
"65 785 OFFCURVE",
"65 817 QCURVE SMOOTH"
);
},
{
nodes = (
"279 849 OFFCURVE",
"321 892 OFFCURVE",
"353 892 QCURVE SMOOTH",
"385 892 OFFCURVE",
"428 849 OFFCURVE",
"428 817 QCURVE SMOOTH",
"428 785 OFFCURVE",
"385 743 OFFCURVE",
"353 743 QCURVE SMOOTH",
"321 743 OFFCURVE",
"279 785 OFFCURVE",
"279 817 QCURVE SMOOTH"
);
}
);
width = 505;
}
);
unicode = 00A8;
},
{
glyphname = breve;
layers = (
{
layerId = "79BD7992-1179-43F8-A0C5-7244DBF16C0A";
paths = (
{
nodes = (
"123 923 LINE",
"233 923 LINE",
"235 903 OFFCURVE",
"240 877 OFFCURVE",
"244 873 QCURVE",
"244 874 LINE",
"259 861 OFFCURVE",
"278 861 QCURVE SMOOTH",
"299 861 OFFCURVE",
"313 873 QCURVE",
"316 877 OFFCURVE",
"324 902 OFFCURVE",
"326 923 QCURVE",
"432 923 LINE",
"432 897 LINE SMOOTH",
"432 830 OFFCURVE",
"387 787 QCURVE SMOOTH",
"342 743 OFFCURVE",
"276 743 QCURVE SMOOTH",
"211 743 OFFCURVE",
"167 787 QCURVE",
"123 834 OFFCURVE",
"123 897 QCURVE SMOOTH"
);
}
);
width = 598;
}
);
unicode = 02D8;
},
{
glyphname = caron;
layers = (
{
layerId = "79BD7992-1179-43F8-A0C5-7244DBF16C0A";
paths = (
{
nodes = (
"197 743 LINE",
"81 895 LINE",
"133 959 LINE",
"271 870 LINE",
"409 959 LINE",
"461 895 LINE",
"345 743 LINE"
);
}
);
width = 553;
}
);
unicode = 02C7;
},
{
glyphname = hungarumlaut;
layers = (
{
layerId = "79BD7992-1179-43F8-A0C5-7244DBF16C0A";
paths = (
{
nodes = (
"528 858 LINE",
"350 743 LINE",
"298 807 LINE",
"414 959 LINE"
);
},
{
nodes = (
"262 858 LINE",
"84 743 LINE",
"32 807 LINE",
"148 959 LINE"
);
}
);
width = 546;
}
);
unicode = 02DD;
},
{
glyphname = grave;
layers = (
{
layerId = "79BD7992-1179-43F8-A0C5-7244DBF16C0A";
paths = (
{
nodes = (
"233 959 LINE",
"349 807 LINE",
"297 743 LINE",
"119 858 LINE"
);
}
);
width = 481;
}
);
unicode = 0060;
},
{
glyphname = dotaccent;
layers = (
{
layerId = "79BD7992-1179-43F8-A0C5-7244DBF16C0A";
paths = (
{
nodes = (
"98 855 OFFCURVE",
"142 901 OFFCURVE",
"176 901 QCURVE SMOOTH",
"210 901 OFFCURVE",
"256 855 OFFCURVE",
"256 821 QCURVE SMOOTH",
"256 787 OFFCURVE",
"210 743 OFFCURVE",
"176 743 QCURVE SMOOTH",
"142 743 OFFCURVE",
"98 787 OFFCURVE",
"98 821 QCURVE SMOOTH"
);
}
);
width = 347;
}
);
unicode = 02D9;
},
{
glyphname = periodcentered;
layers = (
{
layerId = "79BD7992-1179-43F8-A0C5-7244DBF16C0A";
paths = (
{
nodes = (
"123 368 OFFCURVE",
"174 421 OFFCURVE",
"214 421 QCURVE SMOOTH",
"253 421 OFFCURVE",
"305 368 OFFCURVE",
"305 328 QCURVE SMOOTH",
"305 289 OFFCURVE",
"253 237 OFFCURVE",
"214 237 QCURVE SMOOTH",
"174 237 OFFCURVE",
"123 289 OFFCURVE",
"123 328 QCURVE SMOOTH"
);
}
);
width = 417;
}
);
unicode = 00B7;
},
{
glyphname = exclamdown;
layers = (
{
layerId = "79BD7992-1179-43F8-A0C5-7244DBF16C0A";
paths = (
{
nodes = (
"28 572 LINE",
"28 694 LINE",
"355 694 LINE",
"355 574 LINE"
);
},
{
nodes = (
"28 0 LINE",
"28 515 LINE",
"355 515 LINE",
"355 0 LINE"
);
}
);
width = 384;
}
);
unicode = 00A1;
},
{
glyphname = bar;
layers = (
{
layerId = "79BD7992-1179-43F8-A0C5-7244DBF16C0A";
paths = (
{
nodes = (
"107 856 LINE",
"107 -153 LINE",
"26 -153 LINE",
"26 856 LINE"
);
}
);
width = 133;
}
);
unicode = 007C;
},
{
glyphname = acute;
layers = (
{
layerId = "79BD7992-1179-43F8-A0C5-7244DBF16C0A";
paths = (
{
nodes = (
"349 858 LINE",
"171 743 LINE",
"119 807 LINE",
"235 959 LINE"
);
}
);
width = 481;
}
);
unicode = 00B4;
},
{
glyphname = cent;
layers = (
{
layerId = "79BD7992-1179-43F8-A0C5-7244DBF16C0A";
paths = (
{
nodes = (
"485 696 LINE SMOOTH",
"524 696 OFFCURVE",
"591 660 OFFCURVE",
"641 601 OFFCURVE",
"670 528 OFFCURVE",
"671 492 QCURVE",
"548 492 LINE",
"548 496 LINE SMOOTH",
"548 508 OFFCURVE",
"536 535 OFFCURVE",
"516 558 OFFCURVE",
"489 573 OFFCURVE",
"474 573 QCURVE SMOOTH",
"388 573 LINE",
"388 123 LINE",
"474 123 LINE SMOOTH",
"489 123 OFFCURVE",
"516 138 OFFCURVE",
"536 162 OFFCURVE",
"548 189 OFFCURVE",
"548 201 QCURVE SMOOTH",
"548 205 LINE",
"671 205 LINE",
"670 163 OFFCURVE",
"638 88 OFFCURVE",
"584 32 OFFCURVE",
"510 0 OFFCURVE",
"467 0 QCURVE SMOOTH",
"206 0 LINE SMOOTH",
"167 0 OFFCURVE",
"100 37 OFFCURVE",
"49 95 OFFCURVE",
"20 169 OFFCURVE",
"20 205 QCURVE SMOOTH",
"20 492 LINE SMOOTH",
"20 528 OFFCURVE",
"49 601 OFFCURVE",
"100 659 OFFCURVE",
"167 696 OFFCURVE",
"206 696 QCURVE SMOOTH"
);
},
{
nodes = (
"386 856 LINE",
"386 -153 LINE",
"305 -153 LINE",
"305 856 LINE"
);
}
);
width = 692;
}
);
unicode = 00A2;
},
{
glyphname = yen;
layers = (
{
layerId = "79BD7992-1179-43F8-A0C5-7244DBF16C0A";
paths = (
{
nodes = (
"359 696 LINE",
"746 696 LINE",
"486 0 LINE",
"90 0 LINE",
"259 456 LINE",
"87 696 LINE",
"221 696 LINE",
"311 574 LINE"
);
},
{
nodes = (
"806 498 LINE",
"806 419 LINE",
"24 419 LINE",
"24 498 LINE"
);
},
{
nodes = (
"806 284 LINE",
"806 205 LINE",
"24 205 LINE",
"24 284 LINE"
);
}
);
width = 826;
}
);
unicode = 00A5;
},
{
glyphname = circumflex;
layers = (
{
layerId = "79BD7992-1179-43F8-A0C5-7244DBF16C0A";
paths = (
{
nodes = (
"345 959 LINE",
"461 807 LINE",
"409 743 LINE",
"271 832 LINE",
"133 743 LINE",
"81 807 LINE",
"197 959 LINE"
);
}
);
width = 550;
}
);
unicode = 02C6;
},
{
glyphname = AE;
layers = (
{
layerId = "79BD7992-1179-43F8-A0C5-7244DBF16C0A";
paths = (
{
nodes = (
"154 0 LINE",
"14 0 LINE",
"494 696 LINE",
"1071 696 LINE",
"1071 573 LINE",
"895 573 LINE",
"895 419 LINE",
"1070 419 LINE",
"1070 315 LINE",
"895 315 LINE",
"895 123 LINE",
"1071 123 LINE",
"1071 0 LINE",
"501 0 LINE",
"501 86 LINE",
"214 86 LINE"
);
},
{
nodes = (
"501 494 LINE",
"287 190 LINE",
"501 190 LINE"
);
}
);
width = 1089;
}
);
unicode = 00C6;
},
{
glyphname = ae;
layers = (
{
layerId = "79BD7992-1179-43F8-A0C5-7244DBF16C0A";
paths = (
{
nodes = (
"154 0 LINE",
"14 0 LINE",
"494 696 LINE",
"1071 696 LINE",
"1071 573 LINE",
"895 573 LINE",
"895 419 LINE",
"1070 419 LINE",
"1070 315 LINE",
"895 315 LINE",
"895 123 LINE",
"1071 123 LINE",
"1071 0 LINE",
"501 0 LINE",
"501 86 LINE",
"214 86 LINE"
);
},
{
nodes = (
"501 494 LINE",
"287 190 LINE",
"501 190 LINE"
);
}
);
width = 1089;
}
);
unicode = 00E6;
},
{
glyphname = cedilla;
layers = (
{
layerId = "79BD7992-1179-43F8-A0C5-7244DBF16C0A";
paths = (
{
nodes = (
"236 -264 LINE SMOOTH",
"217 -264 OFFCURVE",
"185 -248 OFFCURVE",
"162 -219 OFFCURVE",
"148 -183 OFFCURVE",
"148 -166 QCURVE SMOOTH",
"148 -146 LINE",
"205 -146 LINE",
"205 -156 OFFCURVE",
"207 -176 OFFCURVE",
"215 -194 OFFCURVE",
"229 -205 OFFCURVE",
"241 -205 QCURVE SMOOTH",
"272 -205 LINE",
"272 -106 LINE",
"214 -106 LINE",
"214 0 LINE",
"320 0 LINE",
"320 -47 LINE",
"352 -47 LINE SMOOTH",
"372 -47 OFFCURVE",
"406 -66 OFFCURVE",
"431 -97 OFFCURVE",
"445 -135 OFFCURVE",
"445 -154 QCURVE SMOOTH",
"445 -177 OFFCURVE",
"430 -220 OFFCURVE",
"404 -248 OFFCURVE",
"366 -264 OFFCURVE",
"342 -264 QCURVE SMOOTH"
);
}
);
width = 595;
}
);
unicode = 00B8;
},
{
glyphname = minus;
layers = (
{
layerId = "79BD7992-1179-43F8-A0C5-7244DBF16C0A";
paths = (
{
nodes = (
"508 406 LINE",
"508 284 LINE",
"18 284 LINE",
"18 406 LINE"
);
}
);
width = 524;
}
);
unicode = 2212;
},
{
glyphname = backslash;
layers = (
{
layerId = "79BD7992-1179-43F8-A0C5-7244DBF16C0A";
paths = (
{
nodes = (
"127 763 LINE",
"322 -71 LINE",
"238 -71 LINE",
"42 763 LINE"
);
}
);
width = 345;
}
);
unicode = 005C;
},
{
glyphname = ogonek;
layers = (
{
layerId = "79BD7992-1179-43F8-A0C5-7244DBF16C0A";
paths = (
{
nodes = (
"300 0 LINE",
"403 0 LINE",
"403 -49 LINE SMOOTH",
"403 -60 OFFCURVE",
"394 -81 OFFCURVE",
"380 -97 OFFCURVE",
"361 -107 OFFCURVE",
"350 -107 QCURVE SMOOTH",
"334 -107 LINE",
"333 -205 LINE",
"364 -205 LINE SMOOTH",
"376 -205 OFFCURVE",
"391 -193 OFFCURVE",
"397 -176 OFFCURVE",
"399 -156 OFFCURVE",
"399 -147 QCURVE",
"458 -147 LINE",
"458 -167 LINE SMOOTH",
"458 -183 OFFCURVE",
"444 -218 OFFCURVE",
"419 -246 OFFCURVE",
"388 -263 OFFCURVE",
"369 -263 QCURVE SMOOTH",
"253 -263 LINE SMOOTH",
"234 -263 OFFCURVE",
"200 -245 OFFCURVE",
"175 -214 OFFCURVE",
"159 -177 OFFCURVE",
"159 -159 QCURVE SMOOTH",
"159 -135 OFFCURVE",
"175 -94 OFFCURVE",
"202 -65 OFFCURVE",
"240 -50 OFFCURVE",
"263 -50 QCURVE SMOOTH",
"300 -50 LINE"
);
}
);
width = 611;
}
);
unicode = 02DB;
},
{
glyphname = macron;
layers = (
{
layerId = "79BD7992-1179-43F8-A0C5-7244DBF16C0A";
paths = (
{
nodes = (
"22 876 LINE",
"377 876 LINE",
"377 743 LINE",
"22 743 LINE"
);
}
);
width = 398;
}
);
unicode = 00AF;
},
{
glyphname = questiondown;
layers = (
{
layerId = "79BD7992-1179-43F8-A0C5-7244DBF16C0A";
paths = (
{
nodes = (
"547 128 OFFCURVE",
"574 154 OFFCURVE",
"588 204 OFFCURVE",
"588 245 QCURVE",
"711 245 LINE",
"711 204 LINE SMOOTH",
"711 162 OFFCURVE",
"679 88 OFFCURVE",
"623 33 OFFCURVE",
"549 0 OFFCURVE",
"507 0 QCURVE",
"203 1 LINE",
"170 1 OFFCURVE",
"104 34 OFFCURVE",
"51 86 OFFCURVE",
"18 153 OFFCURVE",
"18 186 QCURVE",
"17 326 LINE",
"17 370 OFFCURVE",
"51 419 OFFCURVE",
"105 443 OFFCURVE",
"172 449 OFFCURVE",
"205 449 QCURVE",
"205 536 LINE",
"499 536 LINE",
"499 120 LINE",
"515 121 OFFCURVE",
"528 124 QCURVE SMOOTH"
);
},
{
nodes = (
"205 571 LINE",
"205 694 LINE",
"499 694 LINE",
"499 571 LINE"
);
}
);
width = 729;
}
);
unicode = 00BF;
},
{
glyphname = quotedbl;
layers = (
{
layerId = "79BD7992-1179-43F8-A0C5-7244DBF16C0A";
paths = (
{
nodes = (
"242 694 LINE",
"176 415 LINE",
"51 415 LINE",
"17 694 LINE"
);
},
{
nodes = (
"489 694 LINE",
"423 415 LINE",
"298 415 LINE",
"264 694 LINE"
);
}
);
width = 505;
}
);
unicode = 0022;
},
{
glyphname = copyright;
layers = (
{
layerId = "79BD7992-1179-43F8-A0C5-7244DBF16C0A";
paths = (
{
nodes = (
"235 128 OFFCURVE",
"134 173 OFFCURVE",
"58 249 OFFCURVE",
"14 350 OFFCURVE",
"14 406 QCURVE SMOOTH",
"14 463 OFFCURVE",
"58 564 OFFCURVE",
"134 640 OFFCURVE",
"235 684 OFFCURVE",
"292 684 QCURVE SMOOTH",
"349 684 OFFCURVE",
"450 640 OFFCURVE",
"525 564 OFFCURVE",
"569 463 OFFCURVE",
"569 406 QCURVE SMOOTH",
"569 350 OFFCURVE",
"525 249 OFFCURVE",
"450 173 OFFCURVE",
"349 128 OFFCURVE",
"292 128 QCURVE SMOOTH"
);
},
{
nodes = (
"246 625 OFFCURVE",
"166 591 OFFCURVE",
"107 532 OFFCURVE",
"73 452 OFFCURVE",
"73 406 QCURVE SMOOTH",
"73 360 OFFCURVE",
"107 280 OFFCURVE",
"166 221 OFFCURVE",
"246 187 OFFCURVE",
"292 187 QCURVE SMOOTH",
"337 187 OFFCURVE",
"417 221 OFFCURVE",
"476 280 OFFCURVE",
"510 360 OFFCURVE",
"510 406 QCURVE SMOOTH",
"510 452 OFFCURVE",
"476 532 OFFCURVE",
"417 591 OFFCURVE",
"337 625 OFFCURVE",
"292 625 QCURVE SMOOTH"
);
},
{
nodes = (
"359 559 LINE SMOOTH",
"376 559 OFFCURVE",
"406 543 OFFCURVE",
"428 517 OFFCURVE",
"440 486 OFFCURVE",
"440 470 QCURVE",
"386 470 LINE",
"386 474 LINE SMOOTH",
"386 484 OFFCURVE",
"367 505 OFFCURVE",
"354 505 QCURVE SMOOTH",
"297 505 LINE",
"297 309 LINE",
"354 309 LINE SMOOTH",
"367 309 OFFCURVE",
"386 330 OFFCURVE",
"386 341 QCURVE SMOOTH",
"386 345 LINE",
"440 345 LINE",
"439 307 OFFCURVE",
"389 255 OFFCURVE",
"351 255 QCURVE SMOOTH",
"218 255 LINE SMOOTH",
"201 255 OFFCURVE",
"172 271 OFFCURVE",
"150 297 OFFCURVE",
"137 329 OFFCURVE",
"137 345 QCURVE SMOOTH",
"137 470 LINE SMOOTH",
"137 486 OFFCURVE",
"150 517 OFFCURVE",
"172 543 OFFCURVE",
"201 559 OFFCURVE",
"218 559 QCURVE SMOOTH"
);
}
);
width = 593;
}
);
unicode = 00A9;
},
{
glyphname = registered;
layers = (
{
layerId = "79BD7992-1179-43F8-A0C5-7244DBF16C0A";
paths = (
{
nodes = (
"232 155 OFFCURVE",
"135 197 OFFCURVE",
"62 270 OFFCURVE",
"20 367 OFFCURVE",
"20 422 QCURVE SMOOTH",
"20 477 OFFCURVE",
"62 573 OFFCURVE",
"135 645 OFFCURVE",
"232 687 OFFCURVE",
"288 687 QCURVE SMOOTH",
"343 687 OFFCURVE",
"439 645 OFFCURVE",
"511 573 OFFCURVE",
"553 477 OFFCURVE",
"553 422 QCURVE SMOOTH",
"553 367 OFFCURVE",
"511 270 OFFCURVE",
"439 197 OFFCURVE",
"343 155 OFFCURVE",
"288 155 QCURVE SMOOTH"
);
},
{
nodes = (
"244 630 OFFCURVE",
"168 597 OFFCURVE",
"111 541 OFFCURVE",
"78 465 OFFCURVE",
"78 422 QCURVE SMOOTH",
"78 378 OFFCURVE",
"111 302 OFFCURVE",
"168 245 OFFCURVE",
"244 212 OFFCURVE",
"288 212 QCURVE SMOOTH",
"331 212 OFFCURVE",
"406 245 OFFCURVE",
"462 302 OFFCURVE",
"495 378 OFFCURVE",
"495 422 QCURVE SMOOTH",
"495 465 OFFCURVE",
"462 541 OFFCURVE",
"406 597 OFFCURVE",
"331 630 OFFCURVE",
"288 630 QCURVE SMOOTH"
);
},
{
nodes = (
"410 468 OFFCURVE",
"389 433 OFFCURVE",
"371 420 QCURVE",
"444 294 LINE",
"343 294 LINE",
"337 309 OFFCURVE",
"317 337 OFFCURVE",
"309 351 QCURVE",
"309 294 LINE",
"159 294 LINE",
"159 569 LINE",
"327 569 LINE SMOOTH",
"360 569 OFFCURVE",
"410 523 OFFCURVE",
"410 489 QCURVE SMOOTH"
);
},
{
nodes = (
"361 503 OFFCURVE",
"340 521 OFFCURVE",
"327 521 QCURVE SMOOTH",
"309 521 LINE",
"309 457 LINE",
"329 457 LINE SMOOTH",
"341 457 OFFCURVE",
"361 478 OFFCURVE",
"361 489 QCURVE SMOOTH"
);
}
);
width = 570;
}
);
unicode = 00AE;
},
{
glyphname = degree;
layers = (
{
layerId = "79BD7992-1179-43F8-A0C5-7244DBF16C0A";
paths = (
{
nodes = (
"179 412 OFFCURVE",
"115 439 OFFCURVE",
"68 487 OFFCURVE",
"41 550 OFFCURVE",
"41 586 QCURVE SMOOTH",
"41 621 OFFCURVE",
"68 684 OFFCURVE",
"115 731 OFFCURVE",
"179 758 OFFCURVE",
"215 758 QCURVE SMOOTH",
"251 758 OFFCURVE",
"313 731 OFFCURVE",
"360 684 OFFCURVE",
"387 621 OFFCURVE",
"387 586 QCURVE SMOOTH",
"387 550 OFFCURVE",
"360 487 OFFCURVE",
"313 439 OFFCURVE",
"251 412 OFFCURVE",
"215 412 QCURVE SMOOTH"
);
},
{
nodes = (
"183 664 OFFCURVE",
"136 618 OFFCURVE",
"136 586 QCURVE SMOOTH",
"136 553 OFFCURVE",
"183 507 OFFCURVE",
"215 507 QCURVE SMOOTH",
"247 507 OFFCURVE",
"293 553 OFFCURVE",
"293 586 QCURVE SMOOTH",
"293 602 OFFCURVE",
"280 631 OFFCURVE",
"259 652 OFFCURVE",
"231 664 OFFCURVE",
"215 664 QCURVE SMOOTH"
);
}
);
width = 413;
}
);
unicode = 00B0;
},
{
glyphname = paragraph;
layers = (
{
layerId = "79BD7992-1179-43F8-A0C5-7244DBF16C0A";
paths = (
{
nodes = (
"666 679 LINE",
"667 588 LINE",
"604 588 LINE",
"604 -146 LINE",
"516 -146 LINE",
"516 588 LINE",
"383 588 LINE",
"383 -146 LINE",
"295 -146 LINE",
"295 254 LINE",
"186 254 LINE SMOOTH",
"154 254 OFFCURVE",
"98 280 OFFCURVE",
"56 324 OFFCURVE",
"31 383 OFFCURVE",
"31 417 QCURVE SMOOTH",
"31 516 LINE SMOOTH",
"31 549 OFFCURVE",
"56 608 OFFCURVE",
"98 653 OFFCURVE",
"154 679 OFFCURVE",
"186 679 QCURVE SMOOTH",
"295 679 LINE",
"295 680 LINE"
);
}
);
width = 687;
}
);
unicode = 00B6;
},
{
glyphname = asciicircum;
layers = (
{
layerId = "79BD7992-1179-43F8-A0C5-7244DBF16C0A";
paths = (
{
nodes = (
"290 681 LINE",
"441 681 LINE",
"715 258 LINE",
"595 180 LINE",
"365 533 LINE",
"136 180 LINE",
"16 258 LINE"
);
}
);
width = 740;
}
);
unicode = 005E;
},
{
glyphname = braceright;
layers = (
{
layerId = "79BD7992-1179-43F8-A0C5-7244DBF16C0A";
paths = (
{
nodes = (
"304 568 OFFCURVE",
"307 508 OFFCURVE",
"319 481 QCURVE",
"330 461 OFFCURVE",
"394 442 OFFCURVE",
"429 440 QCURVE",
"429 290 LINE",
"394 288 OFFCURVE",
"330 269 OFFCURVE",
"319 249 QCURVE",
"307 222 OFFCURVE",
"304 162 OFFCURVE",
"306 133 QCURVE SMOOTH",
"309 100 OFFCURVE",
"305 37 OFFCURVE",
"290 7 QCURVE",
"285 -5 OFFCURVE",
"268 -29 OFFCURVE",
"254 -39 QCURVE",
"228 -60 OFFCURVE",
"179 -85 OFFCURVE",
"125 -99 OFFCURVE",
"64 -104 OFFCURVE",
"26 -104 QCURVE",
"21 -49 LINE",
"19 -38 OFFCURVE",
"16 4 OFFCURVE",
"15 20 QCURVE",
"42 26 OFFCURVE",
"75 35 OFFCURVE",
"96 48 OFFCURVE",
"110 67 OFFCURVE",
"117 84 QCURVE SMOOTH",
"121 92 OFFCURVE",
"124 131 OFFCURVE",
"125 176 OFFCURVE",
"123 218 OFFCURVE",
"121 229 QCURVE",
"127 295 OFFCURVE",
"146 333 QCURVE SMOOTH",
"154 350 OFFCURVE",
"167 365 QCURVE",
"155 377 OFFCURVE",
"146 397 QCURVE",
"127 435 OFFCURVE",
"121 501 QCURVE",
"123 512 OFFCURVE",
"125 554 OFFCURVE",
"124 599 OFFCURVE",
"121 638 OFFCURVE",
"117 646 QCURVE SMOOTH",
"110 663 OFFCURVE",
"96 682 OFFCURVE",
"75 695 OFFCURVE",
"42 704 OFFCURVE",
"15 710 QCURVE",
"16 726 OFFCURVE",
"19 768 OFFCURVE",
"21 779 QCURVE",
"26 834 LINE",
"64 834 OFFCURVE",
"125 829 OFFCURVE",
"179 815 OFFCURVE",
"228 790 OFFCURVE",
"254 769 QCURVE",
"268 759 OFFCURVE",
"285 735 OFFCURVE",
"290 723 QCURVE",
"305 693 OFFCURVE",
"309 630 OFFCURVE",
"306 597 QCURVE SMOOTH"
);
}
);
width = 453;
}
);
unicode = 007D;
},
{
glyphname = trademark;
layers = (
{
layerId = "79BD7992-1179-43F8-A0C5-7244DBF16C0A";
paths = (
{
nodes = (
"190 673 LINE",
"190 642 LINE",
"149 642 LINE",
"149 499 LINE",
"67 499 LINE",
"67 642 LINE",
"26 642 LINE",
"26 673 LINE"
);
},
{
nodes = (
"450 672 LINE",
"450 499 LINE",
"367 499 LINE",
"367 568 LINE",
"346 499 LINE",
"315 499 LINE",
"295 568 LINE",
"295 499 LINE",
"202 499 LINE",
"202 672 LINE",
"295 672 LINE",
"331 551 LINE",
"367 672 LINE"
);
}
);
width = 473;
}
);
unicode = 2122;
},
{
glyphname = ring;
layers = (
{
layerId = "79BD7992-1179-43F8-A0C5-7244DBF16C0A";
paths = (
{
nodes = (
"153 743 OFFCURVE",
"113 760 OFFCURVE",
"81 789 OFFCURVE",
"63 829 OFFCURVE",
"63 852 QCURVE SMOOTH",
"63 874 OFFCURVE",
"81 914 OFFCURVE",
"113 943 OFFCURVE",
"153 961 OFFCURVE",
"177 961 QCURVE SMOOTH",
"199 961 OFFCURVE",
"242 943 OFFCURVE",
"270 914 OFFCURVE",
"288 874 OFFCURVE",
"288 852 QCURVE SMOOTH",
"288 829 OFFCURVE",
"270 789 OFFCURVE",
"242 760 OFFCURVE",
"199 743 OFFCURVE",
"177 743 QCURVE SMOOTH"
);
},
{
nodes = (
"162 882 OFFCURVE",
"143 865 OFFCURVE",
"143 852 QCURVE SMOOTH",
"143 841 OFFCURVE",
"162 823 OFFCURVE",
"175 823 QCURVE SMOOTH",
"188 823 OFFCURVE",
"206 841 OFFCURVE",
"206 852 QCURVE SMOOTH",
"206 865 OFFCURVE",
"188 882 OFFCURVE",
"175 882 QCURVE SMOOTH"
);
}
);
width = 346;
}
);
unicode = 02DA;
},
{
glyphname = sterling;
layers = (
{
layerId = "79BD7992-1179-43F8-A0C5-7244DBF16C0A";
paths = (
{
nodes = (
"313 559 OFFCURVE",
"313 540 QCURVE SMOOTH",
"313 435 LINE SMOOTH",
"313 429 OFFCURVE",
"315 411 OFFCURVE",
"320 391 OFFCURVE",
"330 370 OFFCURVE",
"339 361 QCURVE",
"340 360 LINE",
"579 360 LINE",
"579 279 LINE",
"400 279 LINE",
"400 278 LINE",
"401 277 LINE",
"401 275 LINE",
"402 274 LINE",
"402 272 LINE",
"403 271 LINE",
"403 269 LINE",
"404 268 LINE",
"404 267 LINE",
"410 246 OFFCURVE",
"410 220 QCURVE SMOOTH",
"410 200 OFFCURVE",
"401 167 OFFCURVE",
"394 153 QCURVE",
"411 167 OFFCURVE",
"445 176 OFFCURVE",
"459 176 QCURVE SMOOTH",
"477 176 OFFCURVE",
"489 172 QCURVE SMOOTH",
"551 151 LINE",
"562 146 OFFCURVE",
"586 139 OFFCURVE",
"599 134 QCURVE",
"598 134 LINE",
"603 132 OFFCURVE",
"614 128 OFFCURVE",
"619 126 QCURVE SMOOTH",
"628 123 OFFCURVE",
"637 123 QCURVE SMOOTH",
"656 123 OFFCURVE",
"684 142 QCURVE SMOOTH",
"692 147 OFFCURVE",
"707 162 OFFCURVE",
"714 170 QCURVE",
"751 157 LINE",
"737 122 OFFCURVE",
"707 71 OFFCURVE",
"677 37 OFFCURVE",
"647 15 OFFCURVE",
"634 9 QCURVE SMOOTH",
"611 0 OFFCURVE",
"591 0 QCURVE SMOOTH",
"586 0 OFFCURVE",
"577 1 OFFCURVE",
"572 2 QCURVE",
"488 33 LINE",
"482 37 OFFCURVE",
"459 47 OFFCURVE",
"439 54 QCURVE",
"431 58 OFFCURVE",
"421 58 QCURVE",
"419 58 OFFCURVE",
"405 56 OFFCURVE",
"395 51 QCURVE",
"387 38 OFFCURVE",
"360 16 OFFCURVE",
"344 8 QCURVE",
"322 0 OFFCURVE",
"303 0 QCURVE",
"260 -1 OFFCURVE",
"126 0 QCURVE",
"93 4 OFFCURVE",
"64 27 OFFCURVE",
"54 50 QCURVE SMOOTH",
"50 61 OFFCURVE",
"50 75 QCURVE SMOOTH",
"50 79 OFFCURVE",
"52 100 OFFCURVE",
"60 116 QCURVE SMOOTH",
"77 148 OFFCURVE",
"116 165 QCURVE",
"124 169 LINE",
"149 201 LINE SMOOTH",
"157 211 OFFCURVE",
"157 222 QCURVE SMOOTH",
"157 225 OFFCURVE",
"153 245 OFFCURVE",
"143 262 QCURVE",
"142 263 LINE",
"142 264 LINE",
"141 264 LINE",
"141 265 LINE",
"139 267 LINE",
"139 268 LINE",
"138 268 LINE",
"138 269 LINE",
"137 270 LINE",
"134 274 OFFCURVE",
"130 279 QCURVE",
"17 279 LINE",
"17 360 LINE",
"64 360 LINE",
"60 371 OFFCURVE",
"53 392 OFFCURVE",
"51 402 QCURVE SMOOTH",
"49 415 OFFCURVE",
"45 440 OFFCURVE",
"44 453 QCURVE",
"44 534 LINE SMOOTH",
"44 568 OFFCURVE",
"69 627 OFFCURVE",
"113 671 OFFCURVE",
"172 696 OFFCURVE",
"205 696 QCURVE SMOOTH",
"614 696 LINE",
"614 593 LINE",
"364 593 LINE SMOOTH",
"346 593 OFFCURVE",
"329 576 QCURVE SMOOTH"
);
}
);
width = 778;
}
);
unicode = 00A3;
},
{
glyphname = tilde;
layers = (
{
layerId = "79BD7992-1179-43F8-A0C5-7244DBF16C0A";
paths = (
{
nodes = (
"279 892 OFFCURVE",
"314 876 OFFCURVE",
"333 875 QCURVE",
"347 875 OFFCURVE",
"376 910 OFFCURVE",
"387 930 QCURVE",
"456 885 LINE",
"450 873 OFFCURVE",
"442 855 OFFCURVE",
"434 839 OFFCURVE",
"424 821 OFFCURVE",
"417 809 QCURVE SMOOTH",
"402 783 OFFCURVE",
"366 743 OFFCURVE",
"331 743 QCURVE SMOOTH",
"318 743 OFFCURVE",
"285 751 OFFCURVE",
"265 760 QCURVE",
"259 764 OFFCURVE",
"235 778 OFFCURVE",
"210 791 OFFCURVE",
"187 801 OFFCURVE",
"182 801 QCURVE",
"170 802 OFFCURVE",
"155 799 OFFCURVE",
"141 790 OFFCURVE",
"127 772 OFFCURVE",
"115 757 QCURVE",
"106 762 OFFCURVE",
"84 777 OFFCURVE",
"77 782 QCURVE SMOOTH",
"48 803 LINE",
"59 825 OFFCURVE",
"79 861 OFFCURVE",
"101 890 OFFCURVE",
"129 913 OFFCURVE",
"149 923 QCURVE SMOOTH",
"159 928 OFFCURVE",
"178 931 OFFCURVE",
"187 931 QCURVE SMOOTH",
"207 931 OFFCURVE",
"244 914 OFFCURVE",
"263 903 QCURVE"
);
}
);
width = 485;
}
);
unicode = 02DC;
},
{
glyphname = asciitilde;
layers = (
{
layerId = "79BD7992-1179-43F8-A0C5-7244DBF16C0A";
paths = (
{
nodes = (
"314 443 OFFCURVE",
"359 423 OFFCURVE",
"383 421 QCURVE",
"402 422 OFFCURVE",
"440 463 OFFCURVE",
"454 488 QCURVE",
"543 434 LINE",
"535 419 OFFCURVE",
"524 398 OFFCURVE",
"514 378 OFFCURVE",
"501 357 OFFCURVE",
"492 342 QCURVE SMOOTH",
"482 327 OFFCURVE",
"462 298 OFFCURVE",
"437 276 OFFCURVE",
"404 263 OFFCURVE",
"382 263 QCURVE SMOOTH",
"346 263 OFFCURVE",
"296 282 QCURVE",
"288 288 OFFCURVE",
"258 305 OFFCURVE",
"225 321 OFFCURVE",
"195 332 OFFCURVE",
"188 332 QCURVE",
"173 333 OFFCURVE",
"153 330 OFFCURVE",
"136 319 OFFCURVE",
"117 297 OFFCURVE",
"102 280 QCURVE",
"91 286 OFFCURVE",
"61 304 OFFCURVE",
"53 309 QCURVE SMOOTH",
"15 334 LINE",
"29 362 OFFCURVE",
"55 405 OFFCURVE",
"84 439 OFFCURVE",
"121 467 OFFCURVE",
"146 479 QCURVE SMOOTH",
"159 485 OFFCURVE",
"183 489 OFFCURVE",
"194 489 QCURVE SMOOTH",
"221 489 OFFCURVE",
"269 469 OFFCURVE",
"293 455 QCURVE SMOOTH"
);
}
);
width = 564;
}
);
unicode = 007E;
},
{
glyphname = O;
layers = (
{
layerId = "79BD7992-1179-43F8-A0C5-7244DBF16C0A";
paths = (
{
nodes = (
"666 186 LINE SMOOTH",
"666 148 OFFCURVE",
"630 80 OFFCURVE",
"571 29 OFFCURVE",
"498 0 OFFCURVE",
"462 0 QCURVE",
"210 1 LINE",
"171 1 OFFCURVE",
"103 37 OFFCURVE",
"52 95 OFFCURVE",
"23 168 OFFCURVE",
"23 205 QCURVE SMOOTH",
"23 510 LINE SMOOTH",
"23 543 OFFCURVE",
"57 609 OFFCURVE",
"110 663 OFFCURVE",
"177 696 OFFCURVE",
"210 696 QCURVE SMOOTH",
"480 696 LINE SMOOTH",
"518 696 OFFCURVE",
"586 659 OFFCURVE",
"637 601 OFFCURVE",
"666 528 OFFCURVE",
"666 492 QCURVE SMOOTH"
);
},
{
nodes = (
"543 492 LINE SMOOTH",
"543 507 OFFCURVE",
"531 536 OFFCURVE",
"511 559 OFFCURVE",
"484 573 OFFCURVE",
"469 573 QCURVE SMOOTH",
"392 573 LINE",
"392 123 LINE",
"469 123 LINE SMOOTH",
"482 123 OFFCURVE",
"509 136 OFFCURVE",
"530 157 OFFCURVE",
"543 183 OFFCURVE",
"543 197 QCURVE SMOOTH"
);
}
);
width = 711;
}
);
unicode = 004F;
},
{
glyphname = Thorn;
layers = (
{
layerId = "79BD7992-1179-43F8-A0C5-7244DBF16C0A";
paths = (
{
nodes = (
"644 265 LINE SMOOTH",
"644 237 OFFCURVE",
"621 188 OFFCURVE",
"582 152 OFFCURVE",
"529 131 OFFCURVE",
"499 131 QCURVE SMOOTH",
"407 131 LINE",
"407 0 LINE",
"17 0 LINE",
"17 698 LINE",
"407 698 LINE",
"407 570 LINE",
"499 570 LINE SMOOTH",
"529 570 OFFCURVE",
"582 549 OFFCURVE",
"621 513 OFFCURVE",
"644 464 OFFCURVE",
"644 436 QCURVE SMOOTH"
);
},
{
nodes = (
"540 440 LINE SMOOTH",
"540 451 OFFCURVE",
"516 473 OFFCURVE",
"504 473 QCURVE SMOOTH",
"407 473 LINE",
"407 228 LINE",
"504 228 LINE SMOOTH",
"516 228 OFFCURVE",
"540 249 OFFCURVE",
"540 260 QCURVE SMOOTH"
);
}
);
width = 655;
}
);
unicode = 00DE;
},
{
glyphname = thorn;
layers = (
{
layerId = "79BD7992-1179-43F8-A0C5-7244DBF16C0A";
paths = (
{
nodes = (
"644 265 LINE SMOOTH",
"644 237 OFFCURVE",
"621 188 OFFCURVE",
"582 152 OFFCURVE",
"529 131 OFFCURVE",
"499 131 QCURVE SMOOTH",
"407 131 LINE",
"407 0 LINE",
"17 0 LINE",
"17 698 LINE",
"407 698 LINE",
"407 570 LINE",
"499 570 LINE SMOOTH",
"529 570 OFFCURVE",
"582 549 OFFCURVE",
"621 513 OFFCURVE",
"644 464 OFFCURVE",
"644 436 QCURVE SMOOTH"
);
},
{
nodes = (
"540 440 LINE SMOOTH",
"540 451 OFFCURVE",
"516 473 OFFCURVE",
"504 473 QCURVE SMOOTH",
"407 473 LINE",
"407 228 LINE",
"504 228 LINE SMOOTH",
"516 228 OFFCURVE",
"540 249 OFFCURVE",
"540 260 QCURVE SMOOTH"
);
}
);
width = 655;
}
);
unicode = 00FE;
},
{
glyphname = multiply;
layers = (
{
layerId = "79BD7992-1179-43F8-A0C5-7244DBF16C0A";
paths = (
{
nodes = (
"140 110 LINE",
"32 219 LINE",
"164 351 LINE",
"26 488 LINE",
"135 597 LINE",
"273 460 LINE",
"408 595 LINE",
"517 486 LINE",
"382 351 LINE",
"511 220 LINE",
"402 112 LINE",
"273 242 LINE"
);
}
);
width = 535;
}
);
unicode = 00D7;
},
{
glyphname = ordmasculine;
layers = (
{
layerId = "79BD7992-1179-43F8-A0C5-7244DBF16C0A";
paths = (
{
nodes = (
"310 463 LINE SMOOTH",
"310 446 OFFCURVE",
"295 418 OFFCURVE",
"270 396 OFFCURVE",
"239 384 OFFCURVE",
"223 384 QCURVE SMOOTH",
"93 384 LINE SMOOTH",
"77 384 OFFCURVE",
"48 400 OFFCURVE",
"26 425 OFFCURVE",
"13 456 OFFCURVE",
"13 471 QCURVE SMOOTH",
"13 602 LINE SMOOTH",
"13 616 OFFCURVE",
"28 644 OFFCURVE",
"51 667 OFFCURVE",
"79 681 OFFCURVE",
"93 681 QCURVE SMOOTH",
"231 681 LINE SMOOTH",
"247 681 OFFCURVE",
"276 665 OFFCURVE",
"298 640 OFFCURVE",
"310 609 OFFCURVE",
"310 594 QCURVE SMOOTH"
);
},
{
nodes = (
"258 594 LINE SMOOTH",
"258 606 OFFCURVE",
"239 628 OFFCURVE",
"227 628 QCURVE SMOOTH",
"171 628 LINE",
"171 437 LINE",
"227 437 LINE SMOOTH",
"238 437 OFFCURVE",
"258 457 OFFCURVE",
"258 468 QCURVE SMOOTH"
);
}
);
width = 322;
}
);
unicode = 00BA;
},
{
glyphname = ordfeminine;
layers = (
{
layerId = "79BD7992-1179-43F8-A0C5-7244DBF16C0A";
paths = (
{
nodes = (
"185 593 LINE",
"185 641 LINE",
"123 641 LINE SMOOTH",
"110 641 OFFCURVE",
"88 618 OFFCURVE",
"88 606 QCURVE",
"88 604 LINE",
"30 604 LINE",
"31 620 OFFCURVE",
"45 654 OFFCURVE",
"68 680 OFFCURVE",
"100 697 OFFCURVE",
"118 697 QCURVE SMOOTH",
"271 697 LINE SMOOTH",
"302 697 OFFCURVE",
"352 647 OFFCURVE",
"358 613 QCURVE",
"358 610 OFFCURVE",
"359 600 OFFCURVE",
"359 579 QCURVE SMOOTH",
"359 384 LINE",
"127 384 LINE SMOOTH",
"107 384 OFFCURVE",
"72 399 OFFCURVE",
"45 424 OFFCURVE",
"30 458 OFFCURVE",
"30 477 QCURVE",
"31 500 LINE",
"31 519 OFFCURVE",
"46 553 OFFCURVE",
"73 579 OFFCURVE",
"108 593 OFFCURVE",
"128 593 QCURVE SMOOTH"
);
},
{
nodes = (
"185 440 LINE",
"185 538 LINE",
"124 538 LINE SMOOTH",
"112 538 OFFCURVE",
"89 516 OFFCURVE",
"89 504 QCURVE",
"88 474 LINE",
"88 463 OFFCURVE",
"112 440 OFFCURVE",
"123 440 QCURVE SMOOTH"
);
}
);
width = 394;
}
);
unicode = 00AA;
},
{
glyphname = germandbls;
layers = (
{
layerId = "79BD7992-1179-43F8-A0C5-7244DBF16C0A";
paths = (
{
nodes = (
"560 697 OFFCURVE",
"631 663 OFFCURVE",
"680 606 OFFCURVE",
"707 530 OFFCURVE",
"707 488 QCURVE SMOOTH",
"707 467 OFFCURVE",
"689 416 OFFCURVE",
"674 395 QCURVE SMOOTH",
"658 373 OFFCURVE",
"619 348 OFFCURVE",
"600 348 QCURVE SMOOTH",
"596 348 LINE",
"615 345 OFFCURVE",
"634 334 QCURVE SMOOTH",
"665 317 OFFCURVE",
"707 249 OFFCURVE",
"707 209 QCURVE SMOOTH",
"707 168 OFFCURVE",
"680 93 OFFCURVE",
"630 35 OFFCURVE",
"559 0 OFFCURVE",
"514 0 QCURVE SMOOTH",
"379 0 LINE",
"379 123 LINE",
"509 123 LINE SMOOTH",
"524 123 OFFCURVE",
"551 137 OFFCURVE",
"572 160 OFFCURVE",
"584 189 OFFCURVE",
"584 204 QCURVE SMOOTH",
"584 237 OFFCURVE",
"536 286 OFFCURVE",
"503 286 QCURVE SMOOTH",
"379 286 LINE",
"379 410 LINE",
"510 410 LINE SMOOTH",
"526 410 OFFCURVE",
"553 425 OFFCURVE",
"573 451 OFFCURVE",
"584 482 OFFCURVE",
"584 499 QCURVE SMOOTH",
"584 512 OFFCURVE",
"570 539 OFFCURVE",
"549 560 OFFCURVE",
"522 573 OFFCURVE",
"509 573 QCURVE SMOOTH",
"341 573 LINE",
"341 0 LINE",
"22 0 LINE",
"22 511 LINE SMOOTH",
"22 535 OFFCURVE",
"29 556 QCURVE SMOOTH",
"38 587 OFFCURVE",
"74 639 OFFCURVE",
"123 676 OFFCURVE",
"182 696 OFFCURVE",
"215 696 QCURVE SMOOTH",
"291 696 OFFCURVE",
"404 698 OFFCURVE",
"441 698 QCURVE",
"442 698 LINE",
"442 698 OFFCURVE",
"442 698 QCURVE",
"442 698 OFFCURVE",
"442 698 QCURVE",
"443 698 OFFCURVE",
"443 698 QCURVE",
"443 698 OFFCURVE",
"443 698 QCURVE",
"443 698 OFFCURVE",
"443 698 QCURVE",
"447 698 LINE",
"447 698 OFFCURVE",
"447 698 QCURVE",
"447 698 OFFCURVE",
"447 698 QCURVE",
"447 698 OFFCURVE",
"447 698 QCURVE",
"447 698 OFFCURVE",
"448 698 QCURVE",
"448 698 OFFCURVE",
"448 698 QCURVE",
"452 698 LINE",
"452 698 OFFCURVE",
"452 698 QCURVE",
"452 698 OFFCURVE",
"453 698 QCURVE",
"453 698 OFFCURVE",
"453 698 QCURVE",
"453 698 OFFCURVE",
"453 698 QCURVE",
"454 698 LINE",
"455 698 OFFCURVE",
"455 698 QCURVE",
"459 698 LINE",
"459 698 OFFCURVE",
"459 698 QCURVE",
"459 698 OFFCURVE",
"459 698 QCURVE",
"459 698 OFFCURVE",
"459 698 QCURVE",
"459 698 OFFCURVE",
"460 698 QCURVE",
"460 698 OFFCURVE",
"460 698 QCURVE",
"473 698 LINE",
"473 698 OFFCURVE",
"473 698 QCURVE",
"473 698 OFFCURVE",
"474 698 QCURVE",
"474 698 OFFCURVE",
"474 698 QCURVE",
"474 698 OFFCURVE",
"474 698 QCURVE",
"475 698 LINE",
"475 698 OFFCURVE",
"475 698 QCURVE",
"479 698 LINE SMOOTH",
"498 698 OFFCURVE",
"517 697 QCURVE"
);
}
);
width = 722;
}
);
unicode = 00DF;
},
{
glyphname = braceleft;
layers = (
{
layerId = "79BD7992-1179-43F8-A0C5-7244DBF16C0A";
paths = (
{
nodes = (
"135 630 OFFCURVE",
"139 693 OFFCURVE",
"154 723 QCURVE",
"159 735 OFFCURVE",
"176 759 OFFCURVE",
"190 769 QCURVE",
"216 790 OFFCURVE",
"265 815 OFFCURVE",
"319 829 OFFCURVE",
"380 834 OFFCURVE",
"418 834 QCURVE",
"423 779 LINE",
"425 768 OFFCURVE",
"428 726 OFFCURVE",
"429 710 QCURVE",
"402 704 OFFCURVE",
"369 695 OFFCURVE",
"348 682 OFFCURVE",
"334 663 OFFCURVE",
"327 646 QCURVE SMOOTH",
"323 638 OFFCURVE",
"320 599 OFFCURVE",
"319 554 OFFCURVE",
"321 512 OFFCURVE",
"323 501 QCURVE",
"317 435 OFFCURVE",
"298 397 QCURVE",
"289 377 OFFCURVE",
"277 365 QCURVE",
"290 350 OFFCURVE",
"298 333 QCURVE SMOOTH",
"317 295 OFFCURVE",
"323 229 QCURVE",
"321 218 OFFCURVE",
"319 176 OFFCURVE",
"320 131 OFFCURVE",
"323 92 OFFCURVE",
"327 84 QCURVE SMOOTH",
"334 67 OFFCURVE",
"348 48 OFFCURVE",
"369 35 OFFCURVE",
"402 26 OFFCURVE",
"429 20 QCURVE",
"428 4 OFFCURVE",
"425 -38 OFFCURVE",
"423 -49 QCURVE",
"418 -104 LINE",
"380 -104 OFFCURVE",
"319 -99 OFFCURVE",
"265 -85 OFFCURVE",
"216 -60 OFFCURVE",
"190 -39 QCURVE",
"176 -29 OFFCURVE",
"159 -5 OFFCURVE",
"154 7 QCURVE",
"139 37 OFFCURVE",
"135 100 OFFCURVE",
"138 133 QCURVE SMOOTH",
"140 162 OFFCURVE",
"137 222 OFFCURVE",
"125 249 QCURVE",
"114 269 OFFCURVE",
"50 288 OFFCURVE",
"15 290 QCURVE",
"15 440 LINE",
"50 442 OFFCURVE",
"114 461 OFFCURVE",
"125 481 QCURVE",
"137 508 OFFCURVE",
"140 568 OFFCURVE",
"138 597 QCURVE SMOOTH"
);
}
);
width = 453;
}
);
unicode = 007B;
},
{
glyphname = oe;
layers = (
{
layerId = "79BD7992-1179-43F8-A0C5-7244DBF16C0A";
paths = (
{
nodes = (
"936 419 LINE",
"1111 419 LINE",
"1111 315 LINE",
"936 315 LINE",
"936 123 LINE",
"1112 123 LINE",
"1112 0 LINE",
"609 0 LINE",
"609 62 LINE",
"605 58 OFFCURVE",
"600 54 QCURVE SMOOTH",
"571 29 OFFCURVE",
"498 0 OFFCURVE",
"462 0 QCURVE",
"210 1 LINE",
"171 1 OFFCURVE",
"103 37 OFFCURVE",
"52 95 OFFCURVE",
"23 168 OFFCURVE",
"23 205 QCURVE SMOOTH",
"23 510 LINE SMOOTH",
"23 543 OFFCURVE",
"57 609 OFFCURVE",
"110 663 OFFCURVE",
"177 696 OFFCURVE",
"210 696 QCURVE SMOOTH",
"480 696 LINE SMOOTH",
"518 696 OFFCURVE",
"552 677 QCURVE SMOOTH",
"584 660 OFFCURVE",
"609 633 QCURVE",
"609 696 LINE",
"1112 696 LINE",
"1112 573 LINE",
"936 573 LINE"
);
},
{
nodes = (
"543 492 LINE SMOOTH",
"543 507 OFFCURVE",
"531 536 OFFCURVE",
"511 559 OFFCURVE",
"484 573 OFFCURVE",
"469 573 QCURVE SMOOTH",
"392 573 LINE",
"392 123 LINE",
"469 123 LINE SMOOTH",
"482 123 OFFCURVE",
"509 136 OFFCURVE",
"530 157 OFFCURVE",
"543 183 OFFCURVE",
"543 197 QCURVE SMOOTH"
);
}
);
width = 1137;
}
);
unicode = 0153;
},
{
glyphname = guillemotleft;
layers = (
{
layerId = "79BD7992-1179-43F8-A0C5-7244DBF16C0A";
paths = (
{
nodes = (
"44 239 LINE",
"44 439 LINE",
"417 665 LINE",
"489 577 LINE",
"201 339 LINE",
"489 101 LINE",
"417 13 LINE"
);
},
{
nodes = (
"415 239 LINE",
"415 439 LINE",
"788 665 LINE",
"860 577 LINE",
"572 339 LINE",
"860 101 LINE",
"788 13 LINE"
);
}
);
width = 897;
}
);
unicode = 00AB;
},
{
glyphname = guillemotright;
layers = (
{
layerId = "79BD7992-1179-43F8-A0C5-7244DBF16C0A";
paths = (
{
nodes = (
"116 13 LINE",
"44 101 LINE",
"332 339 LINE",
"44 577 LINE",
"116 665 LINE",
"489 439 LINE",
"489 239 LINE"
);
},
{
nodes = (
"487 13 LINE",
"415 101 LINE",
"703 339 LINE",
"415 577 LINE",
"487 665 LINE",
"860 439 LINE",
"860 239 LINE"
);
}
);
width = 897;
}
);
unicode = 00BB;
},
{
glyphname = OE;
layers = (
{
layerId = "79BD7992-1179-43F8-A0C5-7244DBF16C0A";
paths = (
{
nodes = (
"936 419 LINE",
"1111 419 LINE",
"1111 315 LINE",
"936 315 LINE",
"936 123 LINE",
"1112 123 LINE",
"1112 0 LINE",
"609 0 LINE",
"609 62 LINE",
"605 58 OFFCURVE",
"600 54 QCURVE SMOOTH",
"571 29 OFFCURVE",
"498 0 OFFCURVE",
"462 0 QCURVE",
"210 1 LINE",
"171 1 OFFCURVE",
"103 37 OFFCURVE",
"52 95 OFFCURVE",
"23 168 OFFCURVE",
"23 205 QCURVE SMOOTH",
"23 510 LINE SMOOTH",
"23 543 OFFCURVE",
"57 609 OFFCURVE",
"110 663 OFFCURVE",
"177 696 OFFCURVE",
"210 696 QCURVE SMOOTH",
"480 696 LINE SMOOTH",
"518 696 OFFCURVE",
"552 677 QCURVE SMOOTH",
"584 660 OFFCURVE",
"609 633 QCURVE",
"609 696 LINE",
"1112 696 LINE",
"1112 573 LINE",
"936 573 LINE"
);
},
{
nodes = (
"543 492 LINE SMOOTH",
"543 507 OFFCURVE",
"531 536 OFFCURVE",
"511 559 OFFCURVE",
"484 573 OFFCURVE",
"469 573 QCURVE SMOOTH",
"392 573 LINE",
"392 123 LINE",
"469 123 LINE SMOOTH",
"482 123 OFFCURVE",
"509 136 OFFCURVE",
"530 157 OFFCURVE",
"543 183 OFFCURVE",
"543 197 QCURVE SMOOTH"
);
}
);
width = 1137;
}
);
unicode = 0152;
},
{
glyphname = quoteright;
layers = (
{
layerId = "79BD7992-1179-43F8-A0C5-7244DBF16C0A";
paths = (
{
nodes = (
"35 697 LINE",
"215 697 LINE",
"215 551 LINE",
"35 453 LINE"
);
}
);
width = 250;
}
);
unicode = 2019;
},
{
glyphname = quoteleft;
layers = (
{
layerId = "79BD7992-1179-43F8-A0C5-7244DBF16C0A";
paths = (
{
nodes = (
"215 453 LINE",
"35 453 LINE",
"35 599 LINE",
"215 697 LINE"
);
}
);
width = 250;
}
);
unicode = 2018;
},
{
glyphname = quotedblleft;
layers = (
{
layerId = "79BD7992-1179-43F8-A0C5-7244DBF16C0A";
paths = (
{
nodes = (
"215 453 LINE",
"35 453 LINE",
"35 599 LINE",
"215 697 LINE"
);
},
{
nodes = (
"430 453 LINE",
"250 453 LINE",
"250 599 LINE",
"430 697 LINE"
);
}
);
width = 459;
}
);
unicode = 201C;
},
{
glyphname = quotedblright;
layers = (
{
layerId = "79BD7992-1179-43F8-A0C5-7244DBF16C0A";
paths = (
{
nodes = (
"35 697 LINE",
"215 697 LINE",
"215 551 LINE",
"35 453 LINE"
);
},
{
nodes = (
"252 697 LINE",
"432 697 LINE",
"432 551 LINE",
"252 453 LINE"
);
}
);
width = 474;
}
);
unicode = 201D;
},
{
glyphname = bullet;
layers = (
{
layerId = "79BD7992-1179-43F8-A0C5-7244DBF16C0A";
paths = (
{
nodes = (
"29 384 OFFCURVE",
"49 432 OFFCURVE",
"85 467 OFFCURVE",
"132 488 OFFCURVE",
"159 488 QCURVE SMOOTH",
"186 488 OFFCURVE",
"234 467 OFFCURVE",
"269 432 OFFCURVE",
"290 384 OFFCURVE",
"290 357 QCURVE SMOOTH",
"290 330 OFFCURVE",
"269 283 OFFCURVE",
"234 247 OFFCURVE",
"186 227 OFFCURVE",
"159 227 QCURVE SMOOTH",
"132 227 OFFCURVE",
"85 247 OFFCURVE",
"49 283 OFFCURVE",
"29 330 OFFCURVE",
"29 357 QCURVE SMOOTH"
);
}
);
width = 325;
}
);
unicode = 2022;
},
{
glyphname = quotesinglbase;
layers = (
{
layerId = "79BD7992-1179-43F8-A0C5-7244DBF16C0A";
paths = (
{
nodes = (
"35 132 LINE",
"215 132 LINE",
"215 -14 LINE",
"35 -112 LINE"
);
}
);
width = 252;
}
);
unicode = 201A;
},
{
glyphname = guilsinglright;
layers = (
{
layerId = "79BD7992-1179-43F8-A0C5-7244DBF16C0A";
paths = (
{
nodes = (
"99 26 LINE",
"22 90 LINE",
"251 344 LINE",
"22 600 LINE",
"99 663 LINE",
"361 381 LINE",
"361 308 LINE"
);
}
);
width = 387;
}
);
unicode = 203A;
},
{
glyphname = ellipsis;
layers = (
{
layerId = "79BD7992-1179-43F8-A0C5-7244DBF16C0A";
paths = (
{
nodes = (
"191 169 LINE",
"191 0 LINE",
"26 0 LINE",
"26 169 LINE"
);
},
{
nodes = (
"406 169 LINE",
"406 0 LINE",
"241 0 LINE",
"241 169 LINE"
);
},
{
nodes = (
"621 169 LINE",
"621 0 LINE",
"456 0 LINE",
"456 169 LINE"
);
}
);
width = 645;
}
);
unicode = 2026;
},
{
glyphname = guilsinglleft;
layers = (
{
layerId = "79BD7992-1179-43F8-A0C5-7244DBF16C0A";
paths = (
{
nodes = (
"22 308 LINE",
"22 381 LINE",
"284 663 LINE",
"361 600 LINE",
"132 344 LINE",
"361 90 LINE",
"284 26 LINE"
);
}
);
width = 387;
}
);
unicode = 2039;
},
{
glyphname = daggerdbl;
layers = (
{
layerId = "79BD7992-1179-43F8-A0C5-7244DBF16C0A";
paths = (
{
nodes = (
"454 856 LINE",
"454 -153 LINE",
"373 -153 LINE",
"373 856 LINE"
);
},
{
nodes = (
"805 498 LINE",
"805 419 LINE",
"24 419 LINE",
"24 498 LINE"
);
},
{
nodes = (
"805 284 LINE",
"805 205 LINE",
"24 205 LINE",
"24 284 LINE"
);
}
);
width = 827;
}
);
unicode = 2021;
},
{
glyphname = dagger;
layers = (
{
layerId = "79BD7992-1179-43F8-A0C5-7244DBF16C0A";
paths = (
{
nodes = (
"306 856 LINE",
"306 -153 LINE",
"224 -153 LINE",
"224 856 LINE"
);
},
{
nodes = (
"514 389 LINE",
"514 292 LINE",
"18 292 LINE",
"18 389 LINE"
);
}
);
width = 536;
}
);
unicode = 2020;
},
{
glyphname = quotedblbase;
layers = (
{
layerId = "79BD7992-1179-43F8-A0C5-7244DBF16C0A";
paths = (
{
nodes = (
"35 132 LINE",
"215 132 LINE",
"215 -14 LINE",
"35 -112 LINE"
);
},
{
nodes = (
"250 132 LINE",
"430 132 LINE",
"430 -14 LINE",
"250 -112 LINE"
);
}
);
width = 455;
}
);
unicode = 201E;
},
{
glyphname = Lslash;
layers = (
{
layerId = "79BD7992-1179-43F8-A0C5-7244DBF16C0A";
paths = (
{
nodes = (
"554 565 LINE",
"605 481 LINE",
"460 388 LINE",
"460 123 LINE",
"656 123 LINE",
"656 0 LINE",
"132 0 LINE",
"132 179 LINE",
"70 139 LINE",
"18 222 LINE",
"132 295 LINE",
"132 697 LINE",
"460 697 LINE",
"460 505 LINE"
);
}
);
width = 677;
}
);
unicode = 0141;
},
{
glyphname = lslash;
layers = (
{
layerId = "79BD7992-1179-43F8-A0C5-7244DBF16C0A";
paths = (
{
nodes = (
"554 565 LINE",
"605 481 LINE",
"460 388 LINE",
"460 123 LINE",
"656 123 LINE",
"656 0 LINE",
"132 0 LINE",
"132 179 LINE",
"70 139 LINE",
"18 222 LINE",
"132 295 LINE",
"132 697 LINE",
"460 697 LINE",
"460 505 LINE"
);
}
);
width = 677;
}
);
unicode = 0142;
},
{
glyphname = dotlessi;
layers = (
{
layerId = "79BD7992-1179-43F8-A0C5-7244DBF16C0A";
paths = (
{
nodes = (
"361 696 LINE",
"361 0 LINE",
"34 0 LINE",
"34 696 LINE"
);
}
);
width = 397;
}
);
unicode = 0131;
},
{
glyphname = Idotaccent;
layers = (
{
layerId = "79BD7992-1179-43F8-A0C5-7244DBF16C0A";
paths = (
{
nodes = (
"361 696 LINE",
"361 0 LINE",
"34 0 LINE",
"34 696 LINE"
);
},
{
nodes = (
"113 855 OFFCURVE",
"157 901 OFFCURVE",
"191 901 QCURVE SMOOTH",
"225 901 OFFCURVE",
"271 855 OFFCURVE",
"271 821 QCURVE SMOOTH",
"271 787 OFFCURVE",
"225 743 OFFCURVE",
"191 743 QCURVE SMOOTH",
"157 743 OFFCURVE",
"113 787 OFFCURVE",
"113 821 QCURVE SMOOTH"
);
}
);
width = 397;
}
);
unicode = 0130;
},
{
glyphname = Dcaron;
layers = (
{
layerId = "79BD7992-1179-43F8-A0C5-7244DBF16C0A";
paths = (
{
nodes = (
"639 205 LINE SMOOTH",
"639 163 OFFCURVE",
"607 88 OFFCURVE",
"551 32 OFFCURVE",
"476 0 OFFCURVE",
"434 0 QCURVE SMOOTH",
"22 0 LINE",
"22 697 LINE",
"434 697 LINE SMOOTH",
"476 697 OFFCURVE",
"551 664 OFFCURVE",
"606 609 OFFCURVE",
"639 534 OFFCURVE",
"639 492 QCURVE SMOOTH"
);
},
{
nodes = (
"516 499 LINE SMOOTH",
"516 512 OFFCURVE",
"502 539 OFFCURVE",
"481 560 OFFCURVE",
"455 573 OFFCURVE",
"442 573 QCURVE SMOOTH",
"349 573 LINE",
"349 123 LINE",
"442 123 LINE SMOOTH",
"455 123 OFFCURVE",
"481 137 OFFCURVE",
"502 158 OFFCURVE",
"516 184 OFFCURVE",
"516 197 QCURVE SMOOTH"
);
},
{
nodes = (
"235 743 LINE",
"119 895 LINE",
"171 959 LINE",
"309 870 LINE",
"447 959 LINE",
"499 895 LINE",
"383 743 LINE"
);
}
);
width = 673;
}
);
unicode = 010E;
},
